<svg viewBox="746.5 0 496.07327586206895 417.144" version="1.1" xmlns:xlink="http://www.w3.org/1999/xlink" xmlns="http://www.w3.org/2000/svg" style="max-height: 500px" width="496.07327586206895" height="417.144"><svg y="0" x="0" viewBox="0 0 507 546" data-id="lg_h6fBiZQaqhV9Qki7N7" data-version="2" height="546" width="2000" xml:space="preserve"><rect fill="transparent" height="100%" width="100%"/><path d="M406.948 491.811q-4.48 0-6.83-2.55-2.35-2.55-2.35-7.31v-20.6q0-4.76 2.35-7.31t6.83-2.55q4.48 0 6.84 2.55 2.35 2.55 2.35 7.31v3.36h-5.83v-3.76q0-3.86-3.19-3.86t-3.19 3.86v21.45q0 3.81 3.19 3.81t3.19-3.81v-7.67h-3.08v-5.6h8.91v12.82q0 4.76-2.35 7.31-2.36 2.55-6.84 2.55" fill="#000000"/><rect transform="translate(407.45 472.15)" ry="0" rx="0" fill="none" y="-20.16" x="-9.19" height="40.32" width="18.37"/><path d="M420.108 452.051h9.13q4.76 0 6.95 2.21 2.18 2.21 2.18 6.81v2.4q0 6.11-4.03 7.73v.11q2.24.68 3.16 2.75.93 2.07.93 5.54v6.89q0 1.68.11 2.72.11 1.03.56 2.04h-6.27q-.34-.95-.45-1.79-.11-.84-.11-3.03v-7.16q0-2.69-.87-3.76-.87-1.06-3-1.06h-2.13v16.8h-6.16Zm8.4 16.8q1.85 0 2.78-.95.92-.95.92-3.19v-3.03q0-2.13-.76-3.08-.75-.95-2.38-.95h-2.8v11.2Z" fill="#000000"/><rect transform="translate(430.1 472.15)" ry="0" rx="0" fill="none" y="-19.6" x="-9.49" height="39.2" width="18.99"/><path d="M442.678 452.051h16.8v5.6h-10.64v10.36h8.46v5.6h-8.46v12.04h10.64v5.6h-16.8Z" fill="#000000"/><rect transform="translate(451.58 472.15)" ry="0" rx="0" fill="none" y="-19.6" x="-8.4" height="39.2" width="16.8"/><path d="m468.668 474.561-7.45-22.51h6.55l4.2 14.39h.11l4.2-14.39h5.99l-7.44 22.51v16.69h-6.16Z" fill="#000000"/><rect transform="translate(472.24 472.15)" ry="0" rx="0" fill="none" y="-19.6" x="-10.53" height="39.2" width="21.05"/><path d="M386.558 539.271q-4.48 0-6.78-2.55t-2.3-7.31v-2.24h5.83v2.69q0 3.81 3.19 3.81 1.57 0 2.38-.92.81-.93.81-3 0-2.46-1.12-4.34t-4.14-4.51q-3.81-3.36-5.32-6.07-1.51-2.72-1.51-6.14 0-4.64 2.35-7.19 2.35-2.55 6.83-2.55 4.42 0 6.69 2.55 2.27 2.55 2.27 7.31v1.62h-5.82v-2.02q0-2.01-.79-2.94-.78-.92-2.29-.92-3.08 0-3.08 3.75 0 2.13 1.14 3.98 1.15 1.85 4.18 4.48 3.86 3.36 5.32 6.1 1.45 2.75 1.45 6.44 0 4.82-2.38 7.39-2.38 2.58-6.91 2.58" fill="#000000"/><rect transform="translate(387.16 519.61)" ry="0" rx="0" fill="none" y="-20.16" x="-9.19" height="40.32" width="18.37"/><path d="M404.198 505.111h-6.44v-5.6h19.04v5.6h-6.44v33.6h-6.16Z" fill="#000000"/><rect transform="translate(407.78 519.61)" ry="0" rx="0" fill="none" y="-19.6" x="-9.52" height="39.2" width="19.04"/><path d="M421.948 499.511h8.34l6.39 39.2h-6.16l-1.12-7.78v.11h-7l-1.12 7.67h-5.72Zm6.72 26.21-2.75-19.38h-.11l-2.69 19.38Z" fill="#000000"/><rect transform="translate(426.62 519.61)" ry="0" rx="0" fill="none" y="-19.6" x="-10.56" height="39.2" width="21.12"/><path d="M448.208 539.271q-4.42 0-6.75-2.52-2.32-2.52-2.32-7.11v-21.06q0-4.59 2.32-7.11 2.33-2.52 6.75-2.52 4.43 0 6.75 2.52 2.32 2.52 2.32 7.11v4.15h-5.82v-4.54q0-3.64-3.08-3.64t-3.08 3.64v21.9q0 3.58 3.08 3.58t3.08-3.58v-6h5.82v5.55q0 4.59-2.32 7.11-2.32 2.52-6.75 2.52" fill="#000000"/><rect transform="translate(448.7 519.61)" ry="0" rx="0" fill="none" y="-20.16" x="-9.07" height="40.32" width="18.14"/><path d="M460.978 499.511h6.16v16.52l7.84-16.52h6.16l-7.34 14.39 7.45 24.81h-6.44l-5.21-17.47-2.46 4.98v12.49h-6.16Z" fill="#000000"/><rect transform="translate(471.61 519.61)" ry="0" rx="0" fill="none" y="-19.6" x="-10.13" height="39.2" width="20.27"/><path d="M491.778 539.271q-4.48 0-6.78-2.55-2.29-2.55-2.29-7.31v-2.24h5.82v2.69q0 3.81 3.19 3.81 1.57 0 2.38-.92.82-.93.82-3 0-2.46-1.12-4.34t-4.15-4.51q-3.81-3.36-5.32-6.07-1.51-2.72-1.51-6.14 0-4.64 2.35-7.19 2.35-2.55 6.83-2.55 4.43 0 6.7 2.55 2.26 2.55 2.26 7.31v1.62h-5.82v-2.02q0-2.01-.78-2.94-.79-.92-2.3-.92-3.08 0-3.08 3.75 0 2.13 1.15 3.98t4.17 4.48q3.86 3.36 5.32 6.1 1.46 2.75 1.46 6.44 0 4.82-2.38 7.39-2.38 2.58-6.92 2.58" fill="#000000"/><rect transform="translate(492.4 519.61)" ry="0" rx="0" fill="none" y="-20.16" x="-9.19" height="40.32" width="18.37"/><path d="M492.554 208.4c0-8.125-4.066-14.227-12.185-18.286l-49.16-22.352 49.16-22.352c8.12-4.053 12.185-10.155 12.185-18.28 0-8.125-4.066-14.227-12.185-18.286L256.863 7.252c-4.06-2.03-10.16-2.03-16.25 0l-223.5 101.592c-8.125 4.06-12.191 10.16-12.191 18.286s4.066 14.227 12.19 18.286l49.166 22.352-49.165 22.346c-8.125 4.06-12.191 10.16-12.191 18.286s4.066 14.22 12.19 18.286l49.148 22.346-49.147 22.346c-8.125 4.065-12.191 10.16-12.191 18.292 0 8.137 4.066 14.227 12.19 18.298l223.5 101.586c2.03 2.024 6.096 2.024 8.126 2.024 2.03 0 6.09 0 8.125-2.024L480.37 307.968c8.12-4.071 12.185-10.16 12.185-18.298 0-8.131-4.066-14.227-12.185-18.292l-49.14-22.34 49.14-22.346c8.12-4.065 12.185-10.167 12.185-18.292M248.738 47.89l174.725 79.24-174.725 79.24-174.737-79.24zm-8.125 199.124c2.03 2.024 6.095 2.024 8.125 2.024 2.03 0 6.09 0 8.125-2.024l125.943-57.254 40.657 18.64-174.725 79.246-174.737-79.24 40.663-18.64zm182.85 42.656-174.725 79.252L74.001 289.67l40.663-18.634 125.949 57.248c2.03 2.024 6.095 2.024 8.125 2.024 2.03 0 6.09 0 8.125-2.024l125.943-57.248z" fill="#000000"/></svg></svg>