<svg width="669" height="1934" xmlns="http://www.w3.org/2000/svg" xmlns:xlink="http://www.w3.org/1999/xlink" xml:space="preserve" overflow="hidden"><g transform="translate(-2185 -435)"><path d="M2519.43 440 2601.93 551.727 2663.81 653.141 2698.18 727.052 2736 835.341 2754.9 909.253 2754.9 945.349 2739.43 974.57 2723.97 1003.79 2705.06 1026.14 2691.31 1063.95 2677.56 1094.89 2672.4 1122.39 2681 1151.61 2710.22 1189.43 2772.09 1266.78 2821.94 1351 2842.56 1388.82 2846 1412.88 2844.28 1431.79 2837.41 1442.1 2821.94 1457.57 2806.47 1467.89 2777.25 1478.2 2749.75 1486.8 2730.84 1491.95 2715.37 1502.26 2710.22 1521.17 2711.93 1550.39C2711.36 1567.01 2722.82 1573.6 2718.81 1610.55 2717.38 1636.34 2696.18 1660.11 2687.87 1703.37 2679.56 1746.63 2672.98 1822.83 2668.96 1870.1 2664.95 1917.37 2690.02 1968.8 2678.42 1997.3 2666.82 2025.81 2674.84 2029.39 2636.31 2050.59 2597.78 2071.79 2575.72 2073.93 2543.49 2078.95 2511.26 2083.96 2477.61 2081.38 2442.94 2080.67 2408.28 2079.95 2354.14 2070.07 2330.36 2069.49 2306.59 2068.92 2300 2083.96 2289.11 2093.56L2270.21 2132.23 2192 2366" stroke="#FFFFFF" stroke-width="13.75" stroke-miterlimit="8" fill="none" fill-rule="evenodd"/></g></svg>