<svg width="1646" height="2192" xmlns="http://www.w3.org/2000/svg" xmlns:xlink="http://www.w3.org/1999/xlink" xml:space="preserve" overflow="hidden"><g transform="translate(-1313 -42)"><path d="M1607.94 2221.2C1607.6 2172.35 1612.98 2115.07 1609.59 2059.5 1606.19 2003.93 1603.55 1953.05 1611.24 1897.8 1597.01 1862.09 1593.92 1842.34 1581.53 1808.7 1576.3 1765.15 1568.4 1741.26 1551.83 1686.6 1541.46 1623.04 1546.3 1508.07 1538.63 1462.2 1525.05 1466.38 1500.89 1475.34 1489.12 1482 1473.32 1481.72 1466.04 1481.11 1452.82 1482 1436.53 1477.58 1434.97 1476.66 1419.81 1472.1 1414.66 1462.19 1411.22 1458.44 1406.75 1451.78 1405.49 1445.66 1402.96 1432.96 1400.01 1422.6 1400.81 1398.45 1398.31 1397.21 1400.01 1373.1 1394.33 1354.09 1392.07 1334.52 1390.11 1320.3 1376.66 1278 1373.58 1267.1 1363.71 1234.5 1357.13 1215.52 1342.16 1178.73 1334 1155.3 1330.44 1125.15 1324.44 1111.61 1320.8 1092.6 1317.95 1064.26 1318.91 1048.2 1317.5 1029.9 1319.75 1024.3 1322.23 1013.02 1323.38 1004.91 1326.9 998.871 1329.76 994.374 1332.15 989.44 1337.62 987.556 1345.11 984.24 1350.02 980.847 1353.77 981.585 1359.48 980.608 1367.01 980.4 1389.58 985.951 1424.05 1003.16 1452.82 1020 1442.37 985.278 1443.05 943.701 1433.01 874.8 1431.37 834.952 1429.47 761.063 1419.81 699.9 1417.94 632.997 1409.15 595.838 1406.61 548.1 1406.63 530.602 1408.33 496.971 1406.61 478.8 1410.89 462.711 1418.6 434.22 1426.41 412.8 1447.38 389.78 1453.71 373.493 1466.02 360 1490.58 328.698 1514.41 315.072 1538.63 284.1 1580.75 260.719 1612.64 228.114 1644.24 204.9 1673.33 184.565 1704.85 164.376 1766.35 135.6 1795.79 122.807 1867.58 95.8992 1891.77 82.7999 1928.98 75.4868 1942.26 71.8205 1984.18 59.6999 2034.38 58.2029 2078.46 56.9918 2126.1 46.4999 2216.47 50.9746 2265.8 76.4273 2320.82 76.1999 2381.41 99.7005 2410.6 100.51 2495.74 135.6 2545.73 162.771 2597.66 191.812 2654.16 224.7 2710.56 278.571 2736.49 304.071 2779.58 333.6 2789.23 354.054 2821.21 397.882 2832.39 419.4 2838.58 433.54 2842.37 461.655 2852.19 488.7 2852.5 515.734 2852.52 547.635 2858.79 581.1 2850.33 651.142 2855.97 744.806 2848.69 809.988 2841.4 875.17 2850.77 955.631 2838.99 1029.9 2864.85 1017.01 2898.88 1001.06 2914.9 993.6 2918.62 994.44 2924.42 994.044 2931.47 994.597 2936.8 999.975 2941.47 1001.94 2947.18 1006.8 2948.77 1015.67 2951.1 1022.17 2952.95 1028.11 2954.7 1042.04 2954.93 1047.11 2954.5 1056.3 2944.39 1105.15 2942.77 1128.37 2938 1178.4 2925.6 1209.42 2913.03 1260.07 2904.99 1280.7 2903.43 1314 2897.71 1324.54 2895.09 1350 2896.17 1370.52 2892.88 1386.54 2895.09 1396.2 2894.43 1404.25 2896.74 1423.44 2895.09 1432.5 2895.92 1445.44 2895.96 1455.16 2895.09 1468.8 2890.1 1475.6 2887.07 1481.2 2881.89 1491.9 2872.94 1498.29 2871.08 1502.56 2862.71 1508.5 2855.94 1512.94 2850.73 1515.07 2839.71 1520.16 2833.32 1519.83 2826.17 1520.25 2815.88 1518.3 2806.64 1514.97 2790.95 1507.11 2779.58 1502.93 2770.97 1535.07 2766.24 1563.44 2756.48 1610.7 2748.16 1646.43 2722.37 1744.08 2720.17 1788.9 2706.94 1839.51 2705.91 1845.12 2690.47 1894.5 2685.99 1906.57 2682.42 1929.94 2677.27 1950.6 2678.96 2019.12 2681.71 2040.41 2680.7 2093.03 2679.69 2145.64 2686.43 2181.19 2683.87 2224.5 2602.88 2217.69 2579.68 2216.07 2500.96 2223.94 2422.24 2231.81 2348.52 2231.41 2264.25 2223.21 2179.98 2215.02 2121.23 2231.75 2049.07 2222.55 1976.9 2213.35 1895.61 2231.16 1833.88 2221.89 1772.15 2212.62 1658.19 2225.2 1607.94 2221.2Z" stroke="#FFFFFF" stroke-width="6.875" stroke-miterlimit="8" fill="none" fill-rule="evenodd"/><path d="M1951.36 1656.9 2005.45 1624.28 2043.22 1601.1 2068.12 1591.65 2093.88 1586.5 2108.48 1586.5 2123.93 1589.93 2135.09 1596.8 2147.11 1604.53 2159.13 1610.54 2168.58 1610.54 2186.61 1609.68 2208.07 1603.67 2226.1 1600.24 2242.41 1600.24 2258.73 1605.39 2284.48 1614.83 2331.7 1638.02 2351.45 1648.32 2377.21 1658.62 2381.5 1667.21 2381.5 1680.09 2377.21 1692.11 2365.19 1706.7 2342.86 1721.3 2309.38 1734.18 2281.91 1741.9 2256.15 1747.06 2229.53 1752.21 2197.77 1754.78 2173.73 1756.5 2147.97 1756.5 2125.65 1756.5 2108.48 1754.78 2092.16 1751.35 2076.71 1746.2 2054.39 1740.19 2028.63 1729.03 2014.03 1723.02 1991.71 1712.71 1972.82 1702.41 1961.66 1693.82 1953.93 1686.1 1950.5 1675.79 1951.36 1656.9Z" stroke="#FFFFFF" stroke-width="6.875" stroke-miterlimit="8" fill="none" fill-rule="evenodd"/><path d="M1965 1673.13 1983.02 1676.63 2001.04 1677.5 2018.2 1677.5 2032.78 1672.25 2043.94 1667.87 2056.81 1664.37 2077.4 1660 2091.99 1660 2111.72 1661.75 2123.74 1663.5 2134.03 1665.25 2147.76 1667.87 2161.49 1667.87 2180.37 1668.75 2195.81 1668.75 2212.11 1668.75 2220.7 1668.75 2228.42 1667 2251.58 1667 2267.03 1669.63 2289.34 1674 2302.21 1677.5 2317.65 1680.12 2333.1 1681 2345.11 1681 2354.55 1681 2373.43 1681 2376 1681" stroke="#FFFFFF" stroke-width="2.29167" stroke-miterlimit="8" fill="none" fill-rule="evenodd"/></g></svg>