<svg width="4006" height="1599" xmlns="http://www.w3.org/2000/svg" xmlns:xlink="http://www.w3.org/1999/xlink" xml:space="preserve" overflow="hidden"><g transform="translate(-137 -478)"><path d="M2510.73 787.476 2535.94 794.354 2562.3 811.547 2598.97 839.058 2620.88 852.494 2624.75 855.105 2626.05 855.664 2634.49 860.836 2647.86 864.951 2659.13 869.72 2674.6 876.597 2706.65 895.833 2715.32 901.519 2739.86 921.973 2756.71 939.469 2759.08 942.567 2773.9 969.255 2777.03 978.162 2780.76 992.55 2785.6 1046.94 2785.75 1049.97 2789.19 1145.11 2784.61 1232.22 2768.56 1313.61 2739.92 1407.6 2704.39 1475.23 2675.74 1510.76 2637.93 1541.71 2592.09 1565.78 2548.55 1582.98 2505 1591 2476.35 1591 2446.56 1580.68 2433.95 1570.37 2419.06 1550.88 2401.87 1515.35 2380.09 1475.23 2359.47 1423.65 2336.55 1380.09 2293 1320.48 2229.98 1231.08 2195.6 1169.18 2173.83 1109.57 2169.24 1057.99 2185.29 1020.17 2204.77 994.948 2228.83 970.877 2279.25 923.88 2333.11 871.153 2373.22 840.204 2439.68 808.109 2482.08 788.622ZM1187.65 738.205 1195.2 750.796 1211.25 763.405 1262.81 796.646 1284.14 806.398 1307.51 819.571 1349.9 835.619 1378.55 844.789 1407.2 845.935 1433.56 835.619 1459.91 821.864 1514.92 797.792 1527.87 791.812 1553.88 780.599 1558.37 777.733 1559.61 777.16 1598.57 792.061 1623.78 806.963 1639.82 829.888 1640.97 847.081 1636.49 876.745 1632.95 886.054 1622.63 946.805 1623.53 953.323 1620.34 970.877 1610.03 1004.12 1584.82 1038.51 1550.44 1069.45 1506.9 1114.16 1448.45 1177.2 1409.49 1210.44 1378.55 1237.95 1331.57 1258.59 1300.63 1263.17 1253.65 1263.17 1216.98 1257.44 1182.6 1242.54 1164.26 1220.76 1148.22 1189.81 1121.86 1137.08 1082.9 1039.65 1048.53 929.612 1050.82 903.248 1070.3 856.251 1078.98 824.788 1080.59 821.458 1094.36 802.377 1119.57 786.33 1159.68 759.966ZM1793.09 728.033 1796.82 732.456 1840.36 779.452 1871.3 805.816 1913.7 833.326 1956.1 849.374 1968.13 853.386 2000.79 866.568 2054.65 878.03 2105.07 878.03 2160.08 866.568 2200.18 848.228 2224.25 879.176 2233.42 912.418 2238 936.489 2229.98 957.122 2215.08 975.462 2188.72 1007.56 2165.81 1044.24 2147.47 1069.45 2121.11 1103.84 2097.05 1135.94 2050.07 1198.98 1995.06 1271.2 1952.66 1302.14 1911.41 1317.05 1871.3 1323.92 1830.05 1321.63 1801.4 1313.61 1767.02 1292.97 1745.25 1273.49 1715.46 1229.93 1685.66 1178.35 1654.72 1085.5 1627.22 980.047 1623.53 953.323 1631.8 907.833 1636.49 876.745 1642.12 861.983 1668.47 832.18 1717.75 782.891 1759 747.357ZM3442.37 723.286 3446.44 788.373 3442.37 858.544 3424.04 985.778 3414.57 1040.55 3395.39 1139.38 3386.22 1180.64 3375.91 1217.32 3365.59 1244.83 3350.7 1259.73 3334.65 1271.2 3316.32 1283.8 3295.69 1284.95 3268.19 1282.66 3247.56 1270.05 3217.77 1235.66 3194.85 1198.98 3175.37 1147.4 3150.16 1095.82 3122.66 1069.45 3087.13 1045.38 3069.94 1024.75 3061.92 1002.97 3057.05 982.511 3057.05 979.76 3050.71 905.252 3050.22 895.65 3051.04 834.473 3051.8 827.787 3058.48 800.085 3071.09 779.452 3083.69 761.112 3095.15 748.504 3113.49 734.748 3126.09 727.871 3168.49 743.919 3194.85 751.942 3232.67 757.674 3264.75 757.674 3294.96 755.589 3299.13 755.381 3304.23 754.408 3349.55 747.357 3376.86 740.735 3378.2 740.48 3378.8 740.263 3387.37 738.187 3412.58 729.017ZM537.736 651.567 563.797 653.365 600.467 665.973 622.239 676.29 639.428 700.361 650.472 712.098 658.909 724.432 723.081 749.65 784.961 767.99 818.193 777.16 827.991 776.644 862.885 778.306 886.949 773.721 923.619 755.381 943.1 739.334 982.062 717.555 1021.02 719.847 1058.84 727.871 1088.63 753.089 1093.22 774.867 1090.92 800.085 1080.59 821.458 1079.47 823.01 1078.98 824.788 1073.74 835.619 1042.8 926.173 1032.48 958.268 1013 984.632 990.083 1013.29 947.684 1043.09 882.365 1076.33 803.296 1126.77 759.751 1161.15 724.228 1179.49 684.12 1189.81 640.574 1189.81 595.883 1184.08 551.192 1173.76 491.604 1156.57 436.599 1138.23 351.8 1093.53 303.671 1060.28 289.92 1027.04C289.538 1009.47 285.718 996.476 285.336 978.9L285.336 928.465C285.718 910.125 286.1 891.785 286.482 873.445L288.774 834.473 307.109 779.452 325.444 735.895 341.487 711.823 360.968 703.8 394.2 706.092 423.994 702.653 430.698 701.163 438.318 700.361 446.339 697.686 465.247 693.483 500.771 679.728 505.402 675.274 507.073 674.57ZM3023.53 650.499 3025.26 652.113 3025.25 652.218 3040.72 666.834 3047.6 673.71 3056.19 689.185 3063.93 738.187 3067.36 770.856 3060.49 788.049 3054.47 804.383 3051.8 827.787 3050.46 833.326C3050.08 848.228 3049.7 863.129 3049.32 878.03L3050.22 895.65 3050.18 898.949 3050.71 905.252 3051.61 922.734 3056.19 978.9 3057.05 982.511 3057.05 1005.55 3048.46 1026.18 3034.71 1036.5 3015.8 1049.4 2996.89 1070.89 2969.39 1111.29 2949.62 1135.36 2935.87 1149.12 2916.1 1154.28 2895.48 1154.28 2870.55 1149.12 2836.17 1137.08 2809.53 1123.33 2793.2 1101.84 2788.04 1074.33 2785.6 1046.94 2783.46 1002.97 2780.76 992.55 2780.31 987.498 2777.03 978.162 2775.44 972.023 2773.9 969.255 2769.14 955.689 2759.08 942.567 2758.25 941.074 2756.71 939.469 2749.37 929.898 2739.86 921.973 2728.46 910.125 2715.32 901.519 2713.27 899.809 2706.65 895.833 2695.22 888.346 2664.28 870.006 2647.86 864.951 2636.78 860.263 2626.05 855.664 2620.88 852.494 2590.37 831.893 2552.56 802.664C2552.84 787.476 2553.13 772.289 2553.42 757.101L2591.23 781.172 2631.63 799.225 2659.13 809.542 2676.32 809.542 2677.74 809.571 2693.51 810.401 2697.48 809.983 2717.57 810.401 2732.35 806.705 2746.79 806.103 2768.28 806.103 2782.1 802.051 2806.95 796.646 2844.77 784.611 2894.62 769.136 2909.16 764.409 2951.34 751.942 2960.14 747.836 2963.37 746.784 2970.25 743.116 2977.12 739.907 2979.24 738.32 2989.16 733.029 2996.86 722.014 2998.61 720.134 2999.06 718.874 3001.19 715.836 3006.46 698.268 3010.64 686.606ZM3591.34 640.756 3596.84 643.736 3609.68 653.365 3631.45 661.388 3641.71 662.804 3655.51 667.12 3701.35 671.705 3696.77 726.725 3689.89 808.109 3663.53 949.098 3640.62 1068.31 3617.7 1147.4 3594.78 1205.86 3576.44 1236.81 3560.4 1248.27 3553.53 1251.71 3539.77 1250.56 3530.61 1235.66 3518 1211.59 3499.67 1179.49 3479.04 1137.08 3454.98 1108.43 3433.2 1091.23 3407.99 1078.62 3414.57 1040.55 3418.31 1021.31 3441.22 881.469 3446.95 796.646 3446.44 788.373 3446.95 779.452 3442.4 721.421 3460.99 715.406 3476.75 710.677 3542.07 688.898 3573.01 679.728 3581.03 667.12ZM300.806 316.939 328.309 316.939 359.249 323.817 422.848 361.643 486.447 402.908 551.765 437.296 599.789 457.883 598.175 463.086 598.175 515.814 598.672 523.901 598.175 550.775 601.612 592.04 570.672 628.147 541.451 648.779 537.736 651.567 530.565 651.072 505.402 675.274 474.414 688.325 446.339 697.686 430.698 701.163 405.659 703.8 369.562 703.8 331.746 695.203 288.774 688.325 232.05 659.096 190.797 688.325 163.295 705.519 139.23 715.836 116.884 719.274 85.9443 719.274 63.5989 719.274 36.0966 705.519 17.1886 686.606 6.87521 650.499 0 585.163 3.43743 533.581 13.7511 478.561 25.7832 447.612 44.6909 418.383 72.1932 390.872 103.133 370.24 140.949 354.766 190.797 334.133 244.083 323.817ZM775.794 312.927 828.506 312.927 868.614 320.951 921.327 348.461 991.229 395.457 1043.94 443.6 1078.32 460.794 1102.38 465.379 1111.55 472.256 1112.66 502.186 1111.55 522.692 1117.28 586.882 1125.43 610.534 1127.59 622.416 1158.53 683.167 1150.51 701.507 1136.76 709.531 1109.26 712.97 1079.46 712.97 1023.31 698.068 983.207 714.116 954.559 730.163 922.473 753.089 883.511 773.721 861.738 774.867 827.991 776.644 814.756 776.014 751.73 757.674 686.412 734.748 657.764 719.847 650.472 712.098 644.012 702.653 622.239 671.705 613.072 644.195 602.758 590.321 598.672 523.901 599.894 457.928 599.789 457.883 608.488 429.845 631.407 389.726 654.325 362.216 682.973 336.999 726.519 318.658ZM1363.66 237.274 1416.37 238.421 1456.48 252.176 1503.46 301.465 1585.97 387.434 1646.7 455.063 1679.93 480.28 1694.83 503.205 1701.7 534.154 1707.43 585.736 1705.14 607.514 1695.97 635.024 1660.45 684.313 1642.12 714.116 1607.74 746.211 1558.37 777.733 1527.87 791.812 1487.42 809.255 1434.7 833.326 1404.91 842.496 1380.84 843.643 1348.76 831.034 1302.92 814.986 1284.14 806.398 1244.48 784.037 1204.37 755.381 1190.62 735.895 1187.65 738.205 1181.45 727.871 1152.8 671.705 1128.74 620.123 1125.43 610.534 1123.01 597.198 1113.84 534.154 1112.66 502.186 1113.84 480.28 1121.86 455.063 1156.24 382.849 1189.47 331.267 1214.68 292.295 1244.48 270.516 1304.07 248.737ZM2727.88 186.266 2763.98 186.266 2803.51 198.302 2849.92 224.093 2894.62 267.077 2951.34 328.975 2978.84 361.643 3004.63 411.505 3016.77 453.614 3019.52 466.525 3031 510.524 3033.27 547.717 3033.27 566.249 3033.27 590.321 3028.69 615.538 3027.7 626.052 3026.97 629.866 3011.5 681.448 3006.46 698.268 2999.06 718.874 2996.86 722.014 2987.44 732.169 2979.24 738.32 2970.25 743.116 2960.14 747.836 2909.16 764.409 2875.71 774.294 2818.13 791.488 2782.1 802.051 2767.42 805.243 2746.79 806.103 2734.76 806.103 2732.35 806.705 2726.16 806.963 2697.48 809.983 2677.74 809.571 2660.85 808.682 2631.63 798.366 2611 789.769 2576.62 770.856 2543.96 748.504 2487.24 683.167 2439.11 617.831 2415.04 581.724 2416.73 564.011 2416.76 563.957 2428.22 515.814 2431.66 476.841 2429.88 448.306 2434.81 420.102 2447.7 408.066 2475.21 392.592 2495.83 370.24 2525.05 328.975 2547.4 282.552 2569.75 246.445 2588.65 229.251 2614.44 213.776 2679.75 193.144ZM2147.47 118.064 2189.87 123.795 2231.12 140.989 2264.35 165.061 2297.59 207.472 2345.72 263.639 2394.99 326.682 2415.62 367.947 2428.22 421.821 2429.88 448.306 2428.8 454.49 2427.08 488.877 2418.48 545.617 2416.73 564.011 2394.99 600.637 2333.11 685.46 2301.02 725.578 2275.81 747.357 2263.21 772.575 2248.31 806.963 2238 823.01 2213.93 836.765 2193.31 850.52 2163.51 863.129 2114.24 874.591 2087.88 875.738 2050.07 876.884 1997.35 863.129 1968.13 853.386 1935.47 840.204 1886.2 813.84 1850.67 786.33 1819.73 751.942 1793.38 727.871 1793.09 728.033 1760.15 688.898 1731.5 648.779 1720.04 625.854 1710.87 599.491 1705.14 561.664 1700.56 520.399 1707.43 490.596 1716.6 466.525 1767.02 389.726 1832.34 306.05 1880.47 238.421 1922.87 194.863 1969.85 162.768 2026 138.697 2085.59 121.503ZM3301.42 60.7514 3342.67 60.7514 3375.91 71.0677 3410.28 96.2853 3458.41 169.646 3507.69 246.445 3538.63 324.39 3572.29 452.78 3576.44 471.11 3586.34 529.418 3586.99 537.363 3589.05 586.882 3589.68 608.404 3586.76 639.609 3583.32 654.511 3576.44 669.412 3569.57 678.582 3550.09 685.46 3521.44 693.483 3475.6 710.677 3460.99 715.406 3442.37 720.993 3442.4 721.421 3436.64 723.286 3410.28 729.017 3378.8 740.263 3376.86 740.735 3354.13 745.065 3323.19 750.796 3304.23 754.408 3297.98 755.381 3294.96 755.589 3276.21 756.527 3253.29 756.527 3215.48 754.235 3192.56 750.796 3170.78 742.772 3131.82 727.871 3106.61 717.555 3091.72 707.238 3066.51 685.46 3045.88 671.705 3040.72 666.834 3036.42 662.535 3025.26 652.113 3027.7 626.052 3035.57 585.163 3033.27 547.717 3033.27 519.253 3031 510.524 3030.41 500.913 3016.77 453.614 3014.94 445.033C3015.03 438.824 3019.43 432.615 3019.52 426.406L3045.88 377.117 3079.11 315.22 3108.9 231.543 3139.84 163.914 3170.78 122.649 3216.62 84.8228 3262.46 64.1902ZM3762.08 0 3791.88 2.29251 3817.09 14.9013 3838.86 34.3876 3852.61 60.7514 3877.82 119.21 3915.64 202.887 3951.16 294.587 3972.94 357.631 3985.54 412.651 3994.71 499.767 3997 584.589 3988.98 629.293 3978.67 654.511 3969.5 671.705 3964.91 677.436 3948.87 688.898 3933.97 699.215 3913.35 703.8 3885.84 703.8 3843.45 703.8 3797.61 696.922 3744.9 682.021 3701.35 670.558 3664.68 665.973 3641.71 662.804 3618.84 655.657 3596.84 643.736 3595.92 643.048 3590.2 625.854 3589.68 608.404 3590.2 602.929C3589.81 589.556 3589.43 576.184 3589.05 562.81L3586.99 537.363 3586.76 531.862 3586.34 529.418 3585.61 520.399 3575.3 464.233 3572.29 452.78 3562.69 410.359 3546.65 342.73 3574.15 292.295 3615.41 221.227 3649.78 135.258 3679.58 43.5576 3696.77 20.6326 3728.85 3.43876Z" stroke="#FFFFFF" stroke-width="6.875" stroke-miterlimit="8" fill="none" fill-rule="evenodd" transform="matrix(-1 0 0 1 4138.5 482.5)"/></g></svg>