<svg width="3196" height="1285" xmlns="http://www.w3.org/2000/svg" xmlns:xlink="http://www.w3.org/1999/xlink" xml:space="preserve" overflow="hidden"><g transform="translate(-631 -727)"><path d="M2163.95 1515.39 2164.4 1515.74C2164.82 1516.07 2165.4 1516.83 2166.54 1519.32 2168.84 1524.28 2174.95 1528.29 2176.86 1544.53 2177.59 1568.59 2177.62 1592.66 2178 1616.72 2177.43 1634.3 2175.71 1634.49 2173.42 1649.96 2171.7 1662.18 2169.22 1674.6 2164.25 1709.55 2159.29 1744.5 2157.9 1826.77 2143.62 1859.67 2129.35 1892.57 2100.94 1900.26 2078.59 1906.94 2065.6 1905.41 2030.89 1909.57 2013.84 1899.78 1996.79 1889.99 1986.77 1866.74 1976.31 1848.21 1965.85 1829.68 1956.64 1801.42 1951.1 1788.62 1945.56 1775.82 1952.43 1788.81 1943.08 1771.43 1933.72 1754.05 1910.41 1710.5 1894.94 1684.34 1879.47 1658.17 1860.56 1631.43 1850.25 1614.43 1839.94 1597.43 1838.98 1595.33 1833.06 1582.35 1827.14 1569.36 1812.24 1544.72 1814.72 1536.51 1819.5 1534.98 1833.56 1534.32 1847.96 1533.07L1906.4 1529.63 2010.69 1525.05 2148.21 1517.03C2154.56 1516.6 2158.47 1516.26 2160.8 1516ZM2163.91 1515.35 2163.98 1515.38 2163.95 1515.39ZM2163.11 1514.73 2163.91 1515.35 2163 1515.02C2162.56 1514.92 2162.31 1514.83 2163.11 1514.73ZM2205.51 1433.37 2226.14 1490.67 2247.91 1497.54 2356.78 1494.11 2432.41 1495.25 2561.57 1497.54 2561.39 1499.37 2524.09 1630.48 2472.52 1798.93 2461.92 1824.43 2448.46 1848.21 2435.28 1865.69 2416.37 1879.15 2389.73 1888.03 2363.08 1890.9 2339.02 1889.75 2313.8 1882.59 2296.04 1867.41 2275.99 1837.32 2255.93 1788.62 2207.8 1631.62 2174.57 1513.59 2181.77 1503.1 2182.31 1502.85 2188.43 1494.75 2192.9 1492.96 2194.12 1487.22 2194.28 1487 2197.12 1473ZM1566.04 1387.53C1568.72 1388.87 1568.53 1396.89 1569.48 1404.72 1570.44 1412.55 1569.91 1424.25 1571.77 1434.52 1573.64 1444.78 1576.07 1457.53 1580.66 1466.32L1587.4 1476.44 1589.53 1480.91C1591.33 1484.17 1592.53 1483.97 1599.54 1488.45 1608.88 1494.42 1630.97 1506.97 1643.32 1512.02 1650.06 1513.71 1656.01 1515.32 1662.09 1516.84L1667.71 1518.05 1679.5 1521.61C1689.48 1523.27 1684.12 1522.19 1695.54 1525.05L1708.79 1526.05 1730.88 1528.86C1742.56 1529.79 1757.71 1530.63 1773.73 1531.24L1785.35 1531.48 1799.83 1533.07C1805.68 1534.57 1813.2 1534.98 1814.72 1543.38 1816.25 1551.79 1814.49 1565.73 1808.99 1583.49 1803.5 1601.25 1791.85 1623.55 1781.78 1649.96 1771.7 1676.36 1759.38 1714.8 1748.54 1741.92 1737.7 1769.04 1728.39 1786.85 1716.74 1812.69 1705.09 1838.52 1694.4 1880.68 1678.64 1896.91 1662.88 1913.15 1640.58 1910.76 1622.2 1910.09 1603.81 1909.42 1582.09 1902.26 1568.34 1892.9 1554.58 1883.54 1546.56 1865.97 1539.69 1853.94 1532.81 1841.91 1533.96 1841.53 1527.08 1820.71 1520.21 1799.89 1508.36 1761.31 1498.43 1729.03 1488.5 1696.75 1479.71 1664.66 1467.49 1627.04 1455.27 1589.41 1435.4 1534.22 1425.09 1503.27 1414.77 1472.33 1409.67 1454.28 1405.61 1441.39L1410.19 1437.95 1427.12 1435.62 1428.53 1435.66 1452.05 1432.39 1470.43 1430.29C1480.24 1429.17 1489.84 1427.93 1496.14 1426.49 1508.75 1423.63 1511.61 1419.81 1519.06 1416.18 1526.51 1412.55 1535.1 1407.97 1540.83 1404.72 1546.56 1401.47 1549.24 1399.56 1553.44 1396.7 1557.64 1393.83 1563.37 1386.19 1566.04 1387.53ZM2857.03 1360.84 2864.83 1368.25 2877.92 1383.52 2887.23 1391.06 2888.23 1392.11 2904.56 1405.01 2912.58 1407.3 2920.89 1411.88 2939.8 1416.18 2969.02 1420.48 2964.2 1452.6 2964.15 1452.85 2956.13 1483.79 2946.96 1511.3 2946.87 1512.14 2932.07 1547.68 2914.02 1581.2 2890.81 1631.91 2866.74 1694.65 2833.22 1781.46 2814.31 1833.89 2800.56 1852.79 2783.37 1861.39 2757.59 1863.97 2736.1 1863.97 2711.18 1859.67 2689.69 1851.08 2678.51 1839.9 2665.62 1820.99 2649.29 1782.32 2604.6 1692.07 2577.95 1629.33 2561.62 1592.37 2555.61 1558.85 2561.39 1499.37 2561.91 1497.54 2561.57 1497.54 2561.62 1496.97 2589.99 1493.53 2663.9 1489.24 2689.46 1486.23 2692.77 1485.94C2694.59 1485.75 2696.4 1485.52 2698.83 1485.19L2701.28 1484.84 2722.35 1482.36 2785.09 1472.05 2813.46 1464.31 2826.35 1455.72 2831.4 1449.41 2833.8 1447.05 2834.59 1445.42 2836.66 1442.82 2839.13 1436.04 2841.53 1431.08 2842.95 1425.53 2846.98 1414.46ZM889.91 1324.5 911.684 1376.07 920.335 1397.47 920.422 1397.7 920.586 1398.09 933.458 1429.93 937.933 1436.96 942.625 1444.83 943.65 1445.95 949.502 1455.14 954.084 1455.91 960.675 1458.65C963.588 1459.14 966.572 1459.1 969.807 1459.09L975.088 1459.41 977.006 1459.73 980.437 1459.73 980.443 1459.73C996.105 1462.21 1022.65 1459.35 1036.6 1459.73 1037.17 1459.54 1036.98 1459.63 1037.17 1459.58L1039.36 1458.82 1048.06 1458.58 1070.98 1447.12 1072.06 1446.01 1072.12 1445.98C1077.66 1441.97 1087.4 1434.71 1095.04 1426.49 1098.86 1422.39 1103.02 1417.04 1107 1411.67L1111.19 1405.96 1119.11 1397.84 1092.75 1473.48 1073.85 1530.82 1070.98 1538.8C1060.85 1566.49 1057.23 1574.51 1052.64 1589.22 1050.35 1596.57 1048.68 1603.69 1047.27 1610.14L1045.76 1616.85 1035.45 1648.81 993.05 1666 952.94 1691.21 923.144 1723.3 904.808 1754.24 877.305 1813.83 857.823 1851.65 833.757 1869.98 808.545 1871.13 793.647 1863.11 779.895 1837.9 760.413 1781.74 746.662 1723.3 739.786 1675.17 736.348 1628.18 744.37 1567.45 762.705 1491.81 777.603 1434.52 787.917 1401.28 799.502 1388.33 813.129 1376.07 844.958 1358.04 852.093 1354.3 858.512 1349.66 878.45 1337.11 880.545 1332.62ZM1177.55 1321.06C1179.08 1323.17 1178.99 1331.43 1182.14 1339.4 1185.29 1347.37 1191.07 1359.5 1196.46 1368.91 1201.86 1378.32 1207.16 1388.53 1214.51 1395.84 1218.19 1399.49 1221.85 1402.49 1226.03 1405.19L1228.52 1406.48 1229.12 1407.01 1232.29 1408.44 1240.58 1412.74 1245.25 1414.27 1252.04 1417.33 1256.74 1418.03 1262.41 1419.89C1270.37 1422.09 1278.12 1424.01 1282.99 1425.35 1292.73 1428.02 1290.82 1427.83 1299.03 1428.79 1307.24 1429.74 1323.29 1430.31 1332.26 1431.08 1341.24 1431.84 1347.8 1432.69 1352.89 1433.37 1355.57 1433.73 1358.22 1434.26 1360.91 1434.52 1399.01 1438.14 1375.62 1435.66 1382.69 1436.81 1389.75 1437.95 1399.3 1439.67 1403.31 1441.39 1407.32 1443.11 1402.41 1433.56 1406.75 1447.12 1411.1 1460.68 1423.37 1499.5 1429.39 1522.76 1435.4 1546.01 1442.9 1568.07 1442.85 1586.64 1442.8 1605.22 1438.55 1619.06 1429.1 1634.2 1419.64 1649.34 1394.62 1668.15 1386.12 1677.46 1377.62 1686.77 1383.11 1682.56 1378.1 1690.07 1376.28 1692.8 1376.96 1690.26 1372.37 1698.09 1367.79 1705.92 1356.52 1725.78 1350.6 1737.05 1344.68 1748.32 1343.72 1753.29 1336.85 1765.7 1329.97 1778.12 1316.22 1800.27 1309.34 1811.54 1302.47 1822.81 1299.03 1827.2 1295.59 1833.31 1292.15 1839.42 1290.43 1844.58 1288.72 1848.21 1287 1851.84 1288.33 1849.36 1285.28 1855.09 1282.22 1860.82 1273.25 1877.24 1270.38 1882.59 1267.51 1887.94 1271.14 1882.02 1268.09 1887.17 1265.03 1892.33 1259.49 1902.07 1252.04 1913.53 1244.6 1924.99 1232.37 1945.24 1223.39 1955.93 1214.42 1966.63 1209.45 1970.06 1198.18 1977.7 1186.91 1985.34 1165.9 1997 1155.78 2001.77 1145.66 2006.54 1143.7 2005.64 1137.44 2006.35 1126.81 2007.56 1116.05 2007.12 1105.36 2007.5 1090.46 2005.59 1062 2002.34 1048.06 1994.89 1034.11 1987.45 1027.43 1972.17 1021.7 1962.81 1015.97 1953.45 1016.54 1951.73 1013.68 1938.74 1010.81 1925.75 1005.08 1908.95 1004.51 1884.88 1003.94 1860.82 1007.95 1818.99 1010.24 1794.35 1011.39 1778.12 1013.68 1761.88 1018.26 1737.05 1021.7 1716.61 1033.54 1663.71 1037.74 1645.37 1041.95 1627.04 1040.99 1636.4 1043.47 1627.04L1045.76 1616.85 1058.37 1577.76 1073.85 1530.82 1075.23 1526.98C1086.12 1496.36 1103.18 1446.62 1113.38 1423.06 1125.03 1396.13 1133.43 1386.96 1140.88 1377.22 1148.33 1367.48 1152.92 1363.94 1158.07 1356.88 1163.23 1349.81 1168.58 1340.78 1171.82 1334.82 1175.07 1328.85 1175.84 1320.3 1177.55 1321.06ZM3252.94 1309.61 3271.28 1314.19 3287.32 1334.82 3297.64 1364.61 3301.7 1390.54 3310.24 1449.7 3313.77 1471.26 3320.56 1518.17 3342.33 1666 3351.5 1756.53 3354.94 1828.73 3351.5 1873.42 3338.89 1929.57 3317.12 1969.68 3289.61 1990.31 3257.53 1997.19 3223.15 1998.33 3185.33 1988.02 3149.8 1970.83 3122.3 1941.03 3079.9 1864.25 3036.35 1758.82 2990.51 1646.52 2944.67 1533.07 2946.87 1512.14 2953.55 1496.11 2963.87 1454.86 2964.2 1452.6 2971.03 1419.62 3018.01 1419.62 3060.42 1415.03 3093.65 1410.45 3145.22 1402.43 3184.18 1402.43 3198.21 1399.31 3201.95 1398.99 3206.53 1397.46 3215.12 1395.55 3230.02 1385.24 3231.26 1382.62 3237.19 1374.07 3243.2 1356.02 3250.84 1318.58ZM3552.62 1301.01 3576.69 1351.72 3591.3 1392.11 3609.35 1448.84 3619.66 1487.52 3629.11 1551.98 3632.55 1596.67 3629.11 1634.49 3608.49 1726.45 3599.89 1757.39 3587 1770.28 3568.95 1774.58 3550.9 1772 3533.71 1762.55 3518.24 1744.5 3478.7 1698.09 3457.22 1672.3 3415.96 1631.05 3374.7 1589.79 3326.57 1549.4 3313.77 1471.26 3306.8 1423.06 3301.7 1390.54 3298.21 1366.33 3291.33 1331.95 3318.84 1363.75 3334.25 1371.09 3377.86 1395.55 3425.99 1416.18 3433.72 1418.19 3450.34 1423.92 3455.82 1423.92 3456.93 1424.2 3458.65 1423.92 3464.09 1423.92 3479.56 1420.48 3486.71 1415.88 3494.75 1411.6 3499.96 1404.38 3501.05 1403.29 3501.92 1401.67 3509.64 1390.97 3525.53 1355 3532.85 1339.69ZM1313.93 883.305C1325.77 882.923 1344.3 882.923 1355.18 885.597 1366.07 888.27 1372.04 893.093 1379.25 899.348 1386.46 905.603 1386.22 905.173 1398.44 923.127 1410.67 941.081 1440.89 989.259 1452.59 1007.07 1464.29 1024.88 1462.14 1020.82 1468.63 1029.99 1475.13 1039.16 1478.18 1042.79 1491.55 1062.08 1504.92 1081.37 1536.82 1129.31 1548.85 1145.73L1568.91 1173.52 1579.8 1204.18 1575.21 1219.07C1574.88 1220.23 1575.02 1218.12 1574.07 1222.51 1573.11 1226.9 1571.39 1233.78 1569.48 1245.43 1567.57 1257.08 1564.13 1268.73 1562.61 1292.42 1561.84 1324.12 1565.1 1352.46 1562.89 1384.09 1562.76 1386 1559.41 1388.1 1555.73 1390.97 1552.05 1393.83 1545.23 1398.23 1540.83 1401.28 1536.44 1404.34 1533.77 1406.44 1529.37 1409.3 1524.98 1412.17 1522.31 1415.42 1514.47 1418.47 1506.64 1421.53 1496.71 1424.77 1482.39 1427.64 1475.22 1429.07 1466.25 1430.41 1456.82 1431.72L1452.05 1432.39 1443.42 1433.37 1427.12 1435.62 1354.04 1433.37C1342.51 1430.49 1339.52 1432.03 1332.26 1431.08 1325 1430.12 1316.98 1428.79 1310.49 1427.64 1300.94 1425.92 1283.18 1422.1 1274.96 1420.76L1256.74 1418.03 1245.25 1414.27 1232.29 1408.44 1228.52 1406.48 1220.31 1399.28C1217.66 1396.46 1215.28 1393.55 1213.08 1390.97 1208.69 1385.81 1207.4 1385.38 1202.77 1376.07 1198.13 1366.76 1190.26 1355.16 1185.29 1335.1 1181.56 1320.06 1177.79 1295.41 1175.16 1274.67L1173.37 1259.2 1173.47 1249.59C1173.69 1229.44 1173.92 1207.71 1174.12 1190.42 1174.4 1164.5 1178.34 1144.26 1180.13 1128.76L1180.62 1120.83 1182.72 1108.4C1186.67 1087.32 1192.74 1060.5 1198.76 1040.02 1204.68 1018.82 1220.72 975.937 1226.83 955.501L1253.19 911.954C1260.26 902.404 1266.8 898.059 1272.67 893.618 1278.54 889.178 1281.55 887.029 1288.43 885.31 1295.3 883.592 1302.09 883.687 1313.93 883.305ZM711.135 854.656 720.303 869.553 732.909 898.203 775.311 977.274 831.464 1068.95 848.654 1101.04 863.552 1201.88 877.304 1266.06 886.472 1319.92 880.545 1332.62 872.721 1339.4 858.512 1349.66 847.508 1356.59 844.958 1358.04 828.027 1366.9 807.399 1379.51 799.502 1388.33 790.209 1396.7 773.019 1405.87 751.245 1405.87 735.201 1397.84 713.428 1373.78 683.632 1323.36 656.128 1244.29 640.084 1180.11 635.5 1134.27C635.882 1116.7 636.264 1099.13 636.646 1081.56L644.668 1015.09 654.982 960.085 673.318 910.808 688.216 870.699 697.384 856.948ZM1841.35 844.734C1851.11 845.227 1860.64 846.797 1869.55 847.359 1887.36 848.481 1898.5 849.495 1918.61 855.31 1938.72 861.126 1968.72 871.599 1990.2 882.252 2011.69 892.905 2030.53 907.284 2047.52 919.227 2064.52 931.17 2079.25 942.661 2092.17 953.91 2105.09 965.16 2111.74 968.356 2125.05 986.723 2138.37 1005.09 2160.86 1043.35 2172.06 1064.11 2183.27 1084.87 2187.22 1091.05 2192.27 1111.26 2197.32 1131.47 2200.13 1168.51 2202.37 1185.35 2204.62 1202.19 2204.62 1203.31 2205.74 1212.29 2205.46 1234.18 2205.35 1253.65 2205.29 1271.29L2205.25 1282.93 2204.97 1287.64C2204.79 1291.91 2204.62 1296.88 2204.36 1302.73 2203.57 1320.28 2203.54 1349.32 2203.41 1376.93L2203.4 1378.26 2202.37 1397.05C2200.42 1421.26 2200.97 1444.08 2199.22 1462.66L2197.12 1473 2194.12 1487.22 2188.43 1494.75 2187.17 1495.25 2181.77 1503.1 2163.3 1511.82C2143.42 1518.26 2121.22 1517.98 2099.33 1518.83 2093.72 1519.95 2099.32 1517.64 2071.03 1518.76L1929.58 1525.49 1852.12 1528.86C1842.02 1529.98 1831.98 1532.23 1821.81 1532.23L1785.35 1531.48 1782.76 1531.19C1776.99 1531.09 1771.17 1531.23 1765.45 1530.78 1762.38 1530.53 1767.93 1530.59 1756.28 1529.63L1708.79 1526.05 1702.98 1525.31C1695.41 1523.94 1688.95 1522.45 1681.65 1521.05L1667.71 1518.05 1660.3 1515.81C1652.85 1513.44 1644.93 1510.72 1638.24 1507.86 1624.87 1502.13 1608.88 1494.15 1599.28 1487.23 1594.48 1483.77 1590.97 1480.74 1588.09 1477.47L1587.4 1476.44 1587.28 1476.19C1583.39 1467.56 1579.74 1464.35 1576.17 1436.64 1572.6 1408.94 1565.33 1346.87 1565.86 1309.96 1566.38 1273.04 1574.28 1238.18 1579.33 1215.17 1584.38 1192.15 1588.31 1192 1596.17 1171.88 1604.03 1151.75 1616.38 1116.87 1626.48 1094.42 1636.58 1071.97 1647.53 1054.02 1656.79 1037.17 1666.04 1020.32 1673.03 1007.35 1682.01 993.318 1690.99 979.286 1699.16 969.802 1710.67 952.975 1722.19 936.148 1734.25 909.755 1751.09 892.355 1767.93 874.955 1791.96 856.074 1811.71 848.575 1821.58 844.825 1831.58 844.24 1841.35 844.734ZM3758.9 821.423 3764.05 831.736 3776.95 864.397 3800.15 911.668 3807.03 938.311 3819.92 1031.99 3822.5 1087.86 3819.06 1117.08 3809.61 1166.93 3794.14 1233.97 3781.24 1273.51 3763.19 1314.76 3746.01 1349.14 3729.67 1365.47 3715.06 1374.07 3698.73 1380.08 3679.82 1382.66 3660.92 1380.94 3632.55 1372.35 3603.33 1359.46 3585.28 1345.7 3571.53 1335.39 3552.62 1301.01 3551.76 1289.84 3553.42 1282.2 3582.99 1156.05 3590.71 1112.87 3600.75 1068.09 3639.43 1011.37 3690.14 941.749 3715.92 898.776 3737.41 852.364 3749.44 826.58ZM3091.93 814.547 3116 817.985 3146.08 831.736 3172.72 854.083 3189.91 881.586 3210.54 934.014 3228.59 997.615 3241.48 1047.47 3245 1071.7 3243.77 1073.54 3250.65 1115.94 3256.38 1168.65C3256 1191.19 3255.62 1213.73 3255.23 1236.26L3256.29 1259.53 3256.09 1265.77 3251.8 1313.9 3250.84 1318.58 3240.34 1363.47 3231.26 1382.62 3229.45 1385.24 3217.42 1393.83 3206.53 1397.46 3198.21 1399.31 3171.86 1401.57 3147.8 1401.57 3111.7 1407.59 3060.13 1414.46 3014.58 1417.9 2982.78 1417.04 2961.29 1417.04 2928.63 1411.88 2912.58 1407.3 2895.97 1398.13 2887.23 1391.06 2872.76 1375.78 2864.83 1368.25 2857.29 1359.46 2857.03 1360.84 2855.57 1359.46C2855.86 1350.57 2856.14 1341.69 2856.43 1332.81L2856.67 1328.58 2857.59 1319.49C2858.19 1312.57 2858.63 1306.07 2858.72 1300.44L2858.52 1296.5 2859.01 1288.12 2854.71 1215.92 2843.54 1162.63 2835.8 1132.55 2836.66 1114.5 2865.02 1088.72 2890.81 1051.76 2923.47 992.459 2946.68 950.344 2967.3 904.792 2981.92 877.289 3000.82 849.785 3019.73 832.596 3042.94 821.423 3065.29 815.406ZM2591.71 793.919C2601.26 794.301 2612.91 794.11 2620.36 795.065 2627.8 796.02 2631.43 798.121 2636.4 799.649 2641.37 801.177 2640.98 798.694 2650.15 804.233 2659.32 809.772 2681.86 825.433 2691.41 832.882 2700.96 840.331 2698.28 837.466 2707.45 848.926 2716.62 860.386 2732.85 877.575 2746.41 901.641 2759.98 925.706 2777.36 965.242 2788.82 993.318 2800.28 1021.39 2804.67 1033.43 2815.17 1070.1 2825.68 1106.77 2844.59 1174.95 2851.85 1213.34 2855.47 1232.54 2856.38 1247.96 2856.79 1261.76L2858.52 1296.5 2856.67 1328.58 2855.41 1341.12C2853.83 1355.83 2852.21 1370.54 2851.85 1381.8 2849.94 1391.92 2848.6 1401.04 2847.12 1409.23L2842.95 1425.53 2839.13 1436.04 2834.59 1445.42 2831.4 1449.41 2822.05 1458.58C2811.74 1465.46 2798.56 1468.13 2779.65 1472.33 2760.74 1476.53 2725.79 1481.31 2708.6 1483.79L2701.28 1484.84 2689.46 1486.23 2686.6 1486.48C2684.1 1486.67 2680.95 1486.9 2676.51 1487.23 2658.75 1488.57 2626.85 1490.29 2602.02 1491.81 2576.81 1493.15 2565.13 1494.23 2525.24 1495.25L2424.39 1494.11C2419.79 1494.01 2415.23 1493.22 2410.64 1492.96L2362.51 1490.67C2342.26 1491.05 2309.6 1494.68 2289.16 1495.25L2239.89 1494.11C2228.81 1491.05 2228.43 1489.9 2222.7 1476.92 2216.97 1463.93 2208.75 1428.4 2205.51 1416.18 2202.26 1403.96 2203.98 1407.78 2203.21 1403.57L2203.4 1378.26 2204.39 1360.06C2205.01 1340.94 2205.13 1320.41 2205.21 1296.46L2205.25 1282.93 2205.63 1276.75C2206.22 1270.64 2207.24 1266.6 2209.52 1263.19 2212.57 1244.48 2219.26 1211.82 2222.7 1190.42 2226.13 1169.03 2225.75 1170.75 2228.43 1157.19 2231.1 1143.63 2235.68 1121.86 2238.74 1109.06 2241.8 1096.26 2244.85 1086.14 2246.76 1080.41 2248.67 1074.68 2247.53 1081.37 2250.2 1074.68 2252.87 1068 2253.88 1061.41 2262.81 1040.3 2271.74 1019.2 2288.16 974.218 2303.78 948.052 2319.39 921.886 2336.39 901.736 2356.49 883.305 2376.59 864.874 2401.61 849.117 2424.39 837.466 2447.17 825.816 2478.83 818.558 2493.15 813.401L2537.84 798.79C2554.27 795.543 2573.37 795.83 2591.71 793.919ZM3529.13 736.621 3560.07 737.767 3580.7 753.811 3597.89 781.314 3608.2 816.839 3613.93 875.283C3613.55 903.168 3613.17 931.054 3612.78 958.939L3602.47 1047.18 3590.71 1112.87 3589.58 1117.94 3568.95 1210.77 3553.42 1282.2 3548.61 1302.73 3525.53 1355 3513.94 1379.22 3501.92 1401.67 3499.96 1404.38 3491.6 1412.74 3486.71 1415.88 3477.56 1420.76 3458.65 1423.92 3455.82 1423.92 3433.72 1418.19 3425.41 1415.32 3386.74 1398.99 3336.89 1372.35 3334.25 1371.09 3330.87 1369.2 3312.53 1355.44 3298.78 1340.55 3279.3 1314.19 3257.53 1286.69 3256.29 1259.53 3257.81 1211.63 3257.81 1172.09 3250.08 1106.77 3245 1071.7 3255.23 1056.35 3304.51 977.274 3342.33 908.516 3370.98 850.072 3395.05 813.401 3439.74 771 3480.99 749.227ZM939.045 730.605C947.688 730.844 956.377 731.369 962.108 730.892 964.4 731.656 966.823 732.103 968.983 733.183 984.575 740.979 977.977 738.156 988.465 742.351 994.994 751.057 991.904 745.216 999.925 753.811 1007.95 762.406 1024.95 778.067 1036.6 793.92 1048.25 809.772 1062.76 835.366 1069.83 848.926 1076.9 862.487 1074.99 864.779 1079 875.284 1083.01 885.788 1089.5 900.113 1093.9 911.955 1098.29 923.796 1101.35 935.065 1105.36 946.334 1109.37 957.602 1114.52 970.017 1117.96 979.567 1121.4 989.116 1123.88 997.138 1125.98 1003.63 1128.08 1010.13 1128.08 1012.42 1130.57 1018.53 1133.05 1024.64 1136.3 1031.71 1140.88 1040.3 1145.47 1048.9 1152.91 1061.69 1158.07 1070.1 1163.23 1078.5 1168 1083.28 1171.82 1090.73 1175.64 1098.17 1180.61 1098.17 1180.99 1114.79L1180.62 1120.83 1179.56 1127.11C1175.45 1154.85 1173.49 1180.73 1172.4 1202.17 1171.71 1218.59 1173.35 1239.32 1172.97 1255.74L1173.37 1259.2 1173.18 1277.88C1173.09 1286.41 1173.02 1293.8 1172.97 1299.29 1172.78 1321.26 1173.92 1315.72 1172.97 1322.21 1172.01 1328.71 1168.96 1333.86 1167.24 1338.25 1165.52 1342.65 1168.39 1342.27 1162.66 1348.57 1156.93 1354.87 1140.31 1368.05 1132.86 1376.07 1125.41 1384.09 1124.26 1388.3 1117.96 1396.7L1111.19 1405.96 1072.06 1446.01 1066.89 1448.98C1065.68 1449.37 1064.48 1449.51 1061.81 1450.56 1056.46 1452.66 1044.24 1457.05 1040.03 1458.58L1039.36 1458.82 1005.66 1459.73 980.437 1459.73 975.088 1459.41 954.084 1455.91 951.973 1455.03 943.65 1445.95 937.933 1436.96 937.404 1436.08C935.602 1432.71 933.747 1428.94 931.864 1424.87L920.586 1398.09 920.335 1397.47 909.482 1368.61C906.05 1359.17 902.899 1350.29 900.224 1342.84 889.529 1313.04 884.371 1285.54 878.45 1266.06 872.529 1246.58 875.776 1247.91 873.866 1239.7 871.956 1231.49 870.62 1238.36 866.991 1216.78 863.362 1195.2 855.912 1150.7 852.092 1110.21 848.272 1069.72 844.262 1010.7 844.07 973.837 843.879 936.975 847.317 915.011 850.946 889.035 854.575 863.06 862.025 833.265 865.845 817.985 869.664 802.706 870.23 804.628 873.866 797.358 876.349 791.246 877.113 789.145 880.742 781.314 884.371 773.483 889.719 758.586 895.64 750.373 901.561 742.16 905.19 735.284 916.267 732.038 921.807 730.414 930.402 730.366 939.045 730.605Z" stroke="#FFFFFF" stroke-width="6.875" stroke-miterlimit="8" fill="none" fill-rule="evenodd"/></g></svg>