<svg width="4006" height="1599" xmlns="http://www.w3.org/2000/svg" xmlns:xlink="http://www.w3.org/1999/xlink" xml:space="preserve" overflow="hidden"><g transform="translate(-137 -478)"><path d="M444.838 1542.91 492.974 1576.17 577.785 1620.89 632.798 1639.24 692.395 1656.44 737.093 1666.77 781.791 1672.5 825.343 1672.5 865.456 1662.18 900.985 1643.83 944.537 1609.43 1023.62 1558.97 1088.95 1525.71 1131.35 1495.89 1154.27 1467.22 1173.76 1440.84 1184.07 1408.73 1215.02 1318.14 1232.21 1282.58 1234.5 1257.36 1229.92 1235.57 1200.12 1210.34 1162.3 1202.31 1123.33 1200.01 1084.36 1221.8 1064.88 1237.86 1028.2 1256.21 1004.13 1260.8 955.998 1258.5 892.962 1240.15 827.635 1217.22 798.982 1202.31 780.645 1182.81 763.453 1158.73 741.677 1148.41 705.002 1135.79 671.765 1133.5 641.967 1162.17 606.438 1175.93 565.178 1185.11 535.38 1188.55 502.143 1186.25 482.659 1194.28 466.614 1218.36 448.276 1261.94 429.938 1316.99 427.646 1355.98C427.264 1374.33 426.882 1392.68 426.5 1411.03L426.5 1461.49C426.882 1479.07 430.703 1492.07 431.084 1509.65L444.838 1542.91Z" stroke="#FFFFFF" stroke-width="6.875" stroke-miterlimit="8" fill="none" fill-rule="evenodd"/><path d="M1189.5 1412.12 1223.91 1522.1 1262.91 1619.48 1289.29 1672.18 1305.35 1703.11 1323.7 1724.88 1358.11 1739.77 1394.81 1745.5 1441.84 1745.5 1472.81 1740.92 1519.84 1720.3 1550.81 1692.8 1589.8 1659.58 1648.3 1596.57 1691.89 1551.88 1726.3 1520.95 1751.53 1486.58 1761.85 1453.36 1773.32 1390.35 1782.5 1329.63 1781.35 1312.44 1765.29 1289.53 1740.06 1274.64 1701.06 1259.74 1656.33 1280.37 1601.27 1304.42 1574.89 1318.17 1548.51 1328.48 1519.84 1327.34 1491.16 1318.17 1448.72 1302.13 1385.64 1266.62 1345.49 1237.98 1331.73 1218.5 1300.76 1242.56 1260.61 1268.91 1235.38 1284.95 1220.47 1305.57 1211.29 1338.79 1191.79 1385.77 1189.5 1412.12Z" stroke="#FFFFFF" stroke-width="6.875" stroke-miterlimit="8" fill="none" fill-rule="evenodd"/><path d="M1768.09 1462.65 1795.62 1568.1 1826.59 1660.94 1856.42 1712.52 1886.24 1756.07 1908.04 1775.55 1942.45 1796.18 1971.13 1804.21 2012.42 1806.5 2052.57 1799.62 2093.87 1784.72 2136.31 1753.78 2191.37 1681.57 2238.4 1618.53 2262.49 1586.44 2288.88 1552.05 2307.23 1526.84 2330.17 1490.16 2356.56 1458.07 2371.47 1439.73 2379.5 1419.1 2374.91 1395.03 2365.73 1361.79 2341.65 1330.85 2301.5 1349.18 2246.43 1360.65 2195.96 1360.65 2142.05 1349.18 2076.66 1322.82 2027.34 1296.46 1991.78 1268.95 1960.8 1234.57 1934.42 1210.5 1900.01 1229.98 1858.71 1265.52 1809.38 1314.8 1783 1344.6 1773.82 1368.67 1763.5 1429.42 1768.09 1462.65Z" stroke="#FFFFFF" stroke-width="6.875" stroke-miterlimit="8" fill="none" fill-rule="evenodd"/><path d="M2310.5 1540.84 2315.08 1592.39 2336.86 1651.95 2371.24 1713.81 2434.27 1803.16 2477.82 1862.73 2500.74 1906.26 2521.37 1957.8 2543.14 1997.9 2560.33 2033.41 2575.23 2052.88 2587.84 2063.19 2617.63 2073.5 2646.29 2073.5 2689.83 2065.48 2733.38 2048.3 2779.22 2024.24 2817.04 1993.31 2845.69 1957.8 2881.22 1890.22 2909.87 1796.29 2925.92 1714.96 2930.5 1627.9 2927.06 1532.82 2924.77 1485.86 2916.75 1454.93 2899.56 1424 2869.76 1393.07 2836.53 1371.3 2805.58 1352.98 2775.79 1343.81 2740.26 1322.05 2703.59 1294.56 2677.23 1277.37 2652.02 1270.5 2623.36 1271.65 2580.96 1291.12 2514.49 1323.19 2474.38 1354.12 2420.52 1406.82 2370.09 1453.78 2346.03 1477.84 2326.54 1503.04 2310.5 1540.84Z" stroke="#FFFFFF" stroke-width="6.875" stroke-miterlimit="8" fill="none" fill-rule="evenodd"/><path d="M1857.54 949.044 1907.95 872.227 1973.26 788.53 2021.39 720.885 2063.78 677.317 2110.76 645.215 2166.9 621.138 2226.48 603.94 2288.35 600.5 2330.74 606.233 2371.99 623.431 2405.22 647.508 2438.45 689.929 2486.57 746.109 2535.84 809.168 2556.46 850.443 2569.06 904.329 2572.5 959.363 2569.06 998.344 2557.61 1046.5 2535.84 1083.19 2473.96 1168.03 2441.88 1208.16 2416.68 1229.94 2404.07 1255.17 2389.18 1289.56 2378.87 1305.61 2354.8 1319.37 2334.18 1333.13 2304.39 1345.74 2255.12 1357.21 2228.77 1358.35 2190.96 1359.5 2138.25 1345.74 2097.01 1331.98 2054.61 1315.93 2012.22 1288.42 1981.28 1262.05 1937.74 1215.04 1901.08 1171.47 1872.44 1131.34 1860.98 1108.41 1851.81 1082.04 1846.08 1044.21 1841.5 1002.93 1848.37 973.121 1857.54 949.044Z" stroke="#FFFFFF" stroke-width="6.875" stroke-miterlimit="8" fill="none" fill-rule="evenodd"/><path d="M1262.82 938.156 1297.2 865.986 1330.44 814.436 1355.65 775.487 1385.45 753.721 1445.05 731.956 1504.65 720.5 1557.38 721.646 1597.49 735.392 1644.48 784.651 1727.01 870.568 1787.75 938.156 1820.99 963.358 1835.89 986.269 1842.77 1017.2 1848.5 1068.75 1846.21 1090.52 1837.04 1118.01 1801.51 1167.27 1783.17 1197.05 1748.78 1229.13 1694.92 1263.49 1628.44 1292.13 1575.72 1316.19 1545.92 1325.35 1521.85 1326.5 1489.75 1313.9 1443.91 1297.86 1403.79 1279.53 1352.22 1246.31 1336.17 1233.71 1322.42 1210.8 1293.76 1154.67 1269.69 1103.12 1258.23 1069.9 1252.5 1005.74 1254.79 963.358 1262.82 938.156Z" stroke="#FFFFFF" stroke-width="6.875" stroke-miterlimit="8" fill="none" fill-rule="evenodd"/><path d="M749.807 912.359 772.711 872.26 795.614 844.764 824.244 819.559 867.762 801.228 917.005 795.5 969.684 795.5 1009.77 803.52 1062.44 831.016 1132.3 877.989 1184.98 926.107 1219.34 943.293 1243.39 947.875 1252.55 954.749 1254.84 1016.62 1264 1079.63 1268.58 1104.83 1299.5 1165.55 1291.48 1183.89 1277.74 1191.9 1250.26 1195.34 1220.48 1195.34 1164.37 1180.45 1124.29 1196.49 1095.66 1212.53 1063.59 1235.44 1024.65 1256.06 1002.89 1257.21 959.377 1259.5 926.167 1250.33 864.326 1232 800.195 1206.8 785.308 1185.03 763.549 1154.1 754.387 1126.6 744.081 1072.75 739.5 998.285 739.5 945.584 749.807 912.359Z" stroke="#FFFFFF" stroke-width="6.875" stroke-miterlimit="8" fill="none" fill-rule="evenodd"/><path d="M500.98 806.372 564.62 844.167 628.26 885.397 693.62 919.756 741.78 940.372C741.207 971.295 740.634 1002.22 740.06 1033.14L743.5 1074.37 712.54 1110.45 683.3 1131.06 648.9 1156.83 616.22 1170.58 580.1 1182.6 547.42 1186.04 511.3 1186.04 473.46 1177.45 430.46 1170.58 373.7 1141.37 332.42 1170.58 304.9 1187.76 280.82 1198.06 258.46 1201.5 227.5 1201.5 205.14 1201.5 177.62 1187.76 158.7 1168.86 148.38 1132.78 141.5 1067.5 144.94 1015.96 155.26 960.987 167.3 930.064 186.22 900.859 213.74 873.372 244.7 852.756 282.54 837.295 332.42 816.68 385.74 806.372 442.5 799.5 470.02 799.5 500.98 806.372Z" stroke="#FFFFFF" stroke-width="6.875" stroke-miterlimit="8" fill="none" fill-rule="evenodd"/><path d="M2616.61 875.781 2637.22 853.434 2666.42 812.178 2688.74 765.765 2711.07 729.665 2729.96 712.475 2755.72 697.004 2820.99 676.376 2869.08 669.5 2905.14 669.5 2944.64 681.533 2991.02 707.318 3035.67 750.293 3092.35 812.178 3119.82 844.839 3145.59 894.69 3171.35 984.078 3176.5 1068.31 3167.91 1113 3152.46 1164.57 3142.15 1198.95 3130.13 1216.14 3104.37 1229.9 3035.67 1252.24 2985.86 1267.72 2948.08 1279.75 2908.58 1288.34 2867.36 1290.06 2834.73 1293.5 2802.1 1291.78 2772.9 1281.47 2752.29 1272.87 2717.94 1253.96 2685.31 1231.62 2628.63 1166.29 2580.54 1100.97 2556.5 1064.87 2559.93 1028.77 2568.52 972.046 2570.24 937.665 2576.25 903.285 2589.13 891.252 2616.61 875.781Z" stroke="#FFFFFF" stroke-width="6.875" stroke-miterlimit="8" fill="none" fill-rule="evenodd"/><path d="M2694.36 1239.94C2694.07 1255.1 2693.79 1270.27 2693.5 1285.43L2731.33 1314.61 2765.72 1337.79 2777.76 1342.94 2800.11 1352.38 2815.59 1359.25 2854.28 1382.42 2890.39 1412.47 2910.16 1438.22 2921.34 1469.98 2929.08 1556.67 2934.23 1584.14 2950.57 1605.6 2977.22 1619.33 3011.61 1631.35 3036.55 1636.5 3057.18 1636.5 3076.96 1631.35 3090.71 1617.62 3110.49 1593.58 3138 1553.24 3156.91 1531.78 3175.83 1518.9 3189.59 1508.6 3198.18 1488 3198.18 1462.25 3191.3 1381.57C3191.59 1360.11 3191.88 1338.65 3192.16 1317.19L3195.6 1287.15 3201.62 1270.84 3208.5 1253.67 3205.06 1221.05 3197.32 1172.13 3188.73 1156.68 3177.55 1145.52 3164.65 1133.5 3151.76 1169.55 3139.72 1203.03 3128.54 1215.04 3118.22 1222.77 3092.43 1234.79 3016.77 1257.1 2959.17 1274.27 2909.3 1288.86 2875.77 1288.86 2858.58 1293.16 2817.31 1292.3 2800.11 1292.3 2772.6 1282 2732.19 1263.97 2694.36 1239.94Z" stroke="#FFFFFF" stroke-width="6.875" stroke-miterlimit="8" fill="none" fill-rule="evenodd"/><path d="M3161.08 909.273 3187.43 859.968 3220.64 798.05 3250.42 714.347 3281.35 646.696 3312.28 605.418 3358.09 567.579 3403.91 546.94 3442.85 543.5 3484.09 543.5 3517.31 553.82 3551.67 579.045 3599.78 652.429 3649.03 729.253 3679.96 807.223 3716.61 947.111 3726.92 1003.3 3730.35 1045.72C3730.74 1059.1 3731.12 1072.48 3731.5 1085.85L3728.06 1122.54 3724.63 1137.45 3717.75 1152.36 3710.88 1161.53 3691.41 1168.41 3662.77 1176.44 3616.96 1193.64 3578.01 1206.25 3551.67 1211.98 3519.6 1223.45 3495.54 1228.03 3464.62 1233.77 3440.56 1238.35 3417.66 1239.5 3394.75 1239.5 3356.95 1237.21 3334.04 1233.77 3312.28 1225.74 3273.33 1210.83 3248.13 1200.51 3233.24 1190.2 3208.04 1168.41 3187.43 1154.65 3166.81 1135.16 3170.25 1098.47 3174.83 1073.24 3174.83 1049.16 3174.83 1002.15 3161.08 949.404C3160.99 942.238 3156.6 935.072 3156.5 927.905 3156.6 921.694 3160.99 915.484 3161.08 909.273Z" stroke="#FFFFFF" stroke-width="6.875" stroke-miterlimit="8" fill="none" fill-rule="evenodd"/><path d="M3212.29 1261.7 3199.68 1282.34 3191.65 1315.61C3191.26 1330.52 3190.88 1345.43 3190.5 1360.34L3192.79 1405.07 3197.38 1461.27 3203.12 1485.35 3211.15 1507.14 3228.35 1527.79 3263.91 1551.88 3291.43 1578.26 3316.67 1629.87 3336.17 1681.48 3359.1 1718.18 3388.93 1752.59 3409.57 1765.21 3437.1 1767.5 3457.74 1766.35 3476.1 1753.74 3492.15 1742.27 3507.06 1727.36 3517.39 1699.83 3527.71 1663.13 3536.89 1621.84 3559.83 1503.7 3582.76 1363.78 3588.5 1278.9 3583.91 1205.5 3554.09 1211.23 3528.86 1220.41 3491.01 1229.59 3439.39 1237.61 3406.13 1239.91 3374.02 1239.91 3336.17 1234.17 3309.79 1226.14 3267.35 1210.09 3254.73 1216.97 3236.38 1230.73 3224.91 1243.35 3212.29 1261.7Z" stroke="#FFFFFF" stroke-width="6.875" stroke-miterlimit="8" fill="none" fill-rule="evenodd"/><path d="M3687.5 825.328 3715.04 774.878 3756.35 703.79 3790.78 617.797 3820.62 526.07 3837.83 503.139 3869.97 485.94 3903.25 482.5 3933.08 484.793 3958.33 497.406 3980.13 516.898 3993.9 543.269 4019.15 601.744 4057.02 685.445 4092.6 777.171 4114.4 840.233 4127.02 895.269 4136.2 982.409 4138.5 1067.26 4130.47 1111.97 4120.14 1137.2 4110.96 1154.4 4106.37 1160.13 4090.3 1171.59 4075.38 1181.91 4054.73 1186.5 4027.18 1186.5 3984.72 1186.5 3938.82 1179.62 3886.03 1164.72 3842.42 1153.25 3805.7 1148.66 3772.42 1144.08 3750.62 1136.05 3736.85 1125.73 3731.11 1108.53C3730.73 1095.54 3730.34 1082.54 3729.96 1069.55L3727.67 1014.51 3717.34 953.744 3703.57 892.976 3687.5 825.328Z" stroke="#FFFFFF" stroke-width="6.875" stroke-miterlimit="8" fill="none" fill-rule="evenodd"/><path d="M3549.5 1561.4 3574.68 1574.01 3596.43 1591.21 3620.46 1619.87 3641.06 1662.28 3659.38 1694.38 3671.96 1718.45 3681.12 1733.35 3694.86 1734.5 3701.72 1731.06 3717.75 1719.6 3736.06 1688.65 3758.95 1630.18 3781.84 1551.09 3804.73 1431.87 3831.05 1290.87 3837.92 1209.48 3842.5 1154.45 3796.72 1149.87 3760.09 1138.4 3732.62 1123.5 3722.32 1149.87 3714.31 1162.48 3683.41 1171.65 3618.17 1193.43 3583.84 1203.74 3588.41 1262.21 3583.84 1341.3 3565.52 1468.55 3549.5 1561.4Z" stroke="#FFFFFF" stroke-width="6.875" stroke-miterlimit="8" fill="none" fill-rule="evenodd"/></g></svg>