<svg width="2664" height="2302" xmlns="http://www.w3.org/2000/svg" xmlns:xlink="http://www.w3.org/1999/xlink" xml:space="preserve" overflow="hidden"><g transform="translate(-722 -34)"><path d="M3230.05 1849.1 3250.73 1849.9 3283 1859.64 3311.16 1873.87 3341.62 1900.89 3358.03 1921.67 3366.91 1947.08 3368.09 1973.69 3367.21 2011.58 3368.89 2049.35 3369.7 2067.38 3380.38 2133.14 3382.11 2171.78 3380.57 2195.07 3373.17 2222.07 3360.62 2249.3 3345.94 2267.16 3303.11 2290.58 3258.38 2309.78 3207.21 2319.81 3141.34 2327.92 3102.82 2332.22 3058.8 2329.02 3033.72 2325.84 3005.59 2312.47 2962.1 2282.59 2929.62 2248.77 2907.14 2207.62 2895.23 2172.03 2891.46 2145.53C2891.34 2136.36 2891.22 2127.19 2891.09 2118.02L2897.91 2078.14 2910.27 2046.62 2945.93 1997.71 2981.39 1963.44 3034.06 1929.26 3048.27 1923.52 3054.4 1922.33 3101.74 1903.87 3160.02 1879.76 3214.87 1855.8 3216.13 1854.95ZM838.796 1814.88 861.976 1813.84 864.429 1815.49 902.887 1843.84 933.626 1857.95 979.244 1878.27 979.267 1878.28 979.271 1878.28 989.799 1882.97 1015.56 1893.01 1032.71 1899.98 1075.58 1916.12 1100.48 1915.01 1114.26 1915.26 1121.12 1914.95 1144.42 1916.49 1188.48 1959.25 1206.95 1987.68 1214.23 2015.74 1217.41 2048.28 1218.86 2080.91 1213.18 2107.83 1200.83 2139.35 1169.86 2177.72 1131.74 2210.4 1100.98 2234.14 1074 2246.52 1046.84 2254.62 984.472 2264.29 932.769 2262.3 880.99 2258.59 840.37 2254.38 822.111 2250.04 798.394 2239.05 779.752 2226.12 761.469 2201.99 749.196 2177.6 738.102 2141.1C737.253 2128.52 736.405 2115.94 735.556 2103.36L733.753 2063.01 736.78 2034.49 733.989 2010.53 726.344 1954.96 730.152 1924.68 738.061 1889.92 750.532 1860.97 768.575 1841.24 790.244 1825.65ZM3126.61 1382.32 3155.8 1381.01 3182.61 1384.12 3209.09 1399.28 3240.52 1428.84 3266.99 1462.93 3278.16 1501.14 3294.47 1558.05 3305.84 1639.26C3306.52 1661.02 3307.21 1682.78 3307.9 1704.55L3304.32 1739.98 3287.54 1788.04 3263.05 1817.52 3240.75 1838.3 3216.13 1854.95 3214.01 1855.84 3162.44 1876.21 3096.59 1904.1 3062.79 1917.65 3048.27 1923.52 3008.34 1931.27 2976.58 1932.69 2953.32 1932.01 2934.16 1926.84 2913.1 1917.46 2883.62 1892.97 2867.05 1868.76 2835.14 1809.11 2818.7 1768.56 2803.52 1717.62 2788.47 1650.33 2787.53 1609.95C2787.29 1598.2 2787.05 1586.45 2786.81 1574.71L2799.72 1536.28 2814.92 1510.66 2840.61 1488.86 2893.24 1453.82 2932.67 1431.41 2962.04 1422.98 2983.72 1418.81 3026.41 1405.41 3072.91 1393.32 3102.61 1384.25ZM946.186 1407.49 973.851 1410.55 986.798 1415.63 1007.58 1426.16 1020.5 1434.28 1034.53 1440.1 1039.81 1442.87 1058.19 1449.8 1078.18 1448.9 1090.03 1450.09 1134.28 1451.11 1149.5 1452.6 1179.81 1457.26 1204.54 1471.64 1232.23 1494.49 1262.8 1524.1 1279.18 1544.01 1293.2 1569.19 1300.48 1597.25 1303.88 1634.95 1295.65 1681.77 1286.07 1717.47 1269.71 1774.97 1247.63 1819.83 1221.8 1857.98 1200.52 1882.15 1182.25 1896.73 1162.1 1907.96 1149.38 1911.97 1138.29 1914.18 1121.12 1914.95 1113.36 1914.44 1100.48 1915.01 1086.71 1914.77 1072 1912.84 1035.32 1900.72 1015.56 1893.01 979.271 1878.28 979.244 1878.27 923.952 1853.22 882.374 1827.55 864.429 1815.49 861.08 1813.02 844.077 1798.29 827.549 1774.95 821.516 1755.43C820.833 1746.57 820.151 1737.71 819.468 1728.86L821.061 1687.49 822.193 1635.83 823.081 1597.94C822.779 1584.76 822.477 1571.58 822.175 1558.41L828.957 1517.67 838.775 1487.13 856.205 1453.66 875.965 1433.85 896.93 1421.73 917.189 1413.08ZM3062.38 1080.67 3077.91 1081.69 3101.7 1094.39 3132.82 1117.09 3171.05 1144.63 3191.08 1169.54 3197.58 1199.36 3203.57 1218.02 3202.85 1240.41 3196.75 1257.89 3186.59 1280.71 3172.63 1314.88 3158.21 1338.75 3126.63 1363.39 3100.74 1380.89 3038.02 1401.76 3026.41 1405.41 2992.98 1414.1 2962.04 1422.98 2948.75 1425.53 2928.19 1427.31 2896.97 1421.83 2858.66 1411.5 2829.64 1397.31 2802.14 1378.75 2778.71 1354.85 2765.77 1334.78 2757.6 1305.9 2757.9 1274.06 2761.19 1251.55 2775.03 1214.8 2796.13 1186.33 2814.88 1163.12 2848.96 1136.65 2886.71 1115.18 2922.08 1105.94 2938.62 1102.54 2983.19 1095.63 2985.61 1095.28 2986.27 1095.15 3000.99 1092.87 3037.61 1085.35 3044.46 1084.05ZM1050.04 1132.73 1079.52 1134.99 1088.05 1136.2 1138.4 1141.59 1197.1 1151.11 1237.05 1159.65 1273.06 1176.1 1303.59 1204.85 1331.3 1247.48 1341.82 1271.1 1347.15 1294.09 1347.8 1308.68 1346.07 1327.68 1342.81 1351.05 1330.86 1372.23 1319.53 1388.22 1296.96 1403 1273.61 1419.52 1240.97 1439.91 1218.14 1448.67 1203.62 1451.04 1181.34 1452.9 1161.59 1453.78 1149.5 1452.6 1140.83 1451.26 1134.28 1451.11 1131.35 1450.83 1082.23 1448.72 1078.18 1448.9 1048.55 1445.93 1034.53 1440.1 1018.67 1431.78 1007.58 1426.16 997.491 1419.82 986.798 1415.63 984.345 1414.39 957.952 1382.02 932.34 1347.89 914.288 1328.91 905.832 1312.95 899.914 1296C899.906 1289.41 899.898 1282.82 899.89 1276.22L900.878 1259.83 910.965 1235.29 922.999 1215.83 941.939 1196.92 984.304 1163.2 1010.19 1145.7 1025.26 1136.42ZM2959.58 743.746 2983.77 746.106 3009.99 755.258 3038.27 772.059 3063.07 788.155 3087.44 813.734 3103.78 832.789 3117.84 858.828 3125.08 886.031 3126.23 911.787 3123.28 942.027 3116.12 974.176 3111.92 995.869 3093.31 1041.43 3074.53 1063.78 3056.25 1078.36 3038.49 1085.17 3037.61 1085.35 2986.27 1095.15 2983.19 1095.63 2934.33 1102.73 2922.08 1105.94 2901.12 1110.24 2860.77 1112.04 2815.93 1109.74 2768.02 1096.4 2739.78 1080.46 2701.25 1046.05 2679.35 1017.78 2669.53 990.69C2668.85 981.832 2668.17 972.973 2667.49 964.114L2666.3 937.5 2672.05 912.296 2684.48 882.493 2702.22 855.893 2722.99 839.482 2760.78 818.867 2807.94 796.115 2872.07 768.302 2902.63 759.195 2942.56 747.948ZM1126.67 787.798 1145.64 788.671 1185.9 804.076 1247.96 826.25 1298.91 849.78 1357.03 879.873 1386.55 905.22 1409.24 931.734 1420.54 953.595 1426.1 981.735 1424.33 999.878 1419.32 1022.47 1409.86 1041.82 1393.99 1071.77 1378.41 1088.81 1359.24 1102.57 1328.28 1122.02 1301.42 1136.99 1265.86 1149.76 1242.76 1152.51 1224.73 1153.32 1185.79 1148.17 1139.04 1141.66 1138.4 1141.59 1113.92 1137.62 1079.52 1134.99 1060.34 1132.27 1039.62 1130.62 1026.99 1117.42 1011.17 1090.6 991.926 1045.01 977.951 1001.76 970.177 962.536C969.43 952.247 968.683 941.958 967.937 931.668L969.875 898.032 978.834 867.524 997.122 834.018 1012.63 815.26 1040.27 798.541 1083.78 790.575ZM2803.61 391.139 2828.58 391.744 2857.14 395.629 2888.55 405.409 2919.59 426.387 2938.43 443.61 2961.54 479.568 2983.78 534.489 2998.38 572.547 3005.93 606.619C3006.04 615.503 3006.15 624.388 3006.26 633.272L3002.96 655.785 2981.38 711.804 2962.71 736.725 2945.1 746.974 2920.47 754.096 2882.15 762.691 2815.26 767.4 2770.61 769.395 2714.08 755.576 2671.06 735.993 2646.1 716.463 2635.69 695.422 2630.8 662.952 2627.32 623.537 2630.5 598.448 2643.48 561.738 2665.96 506.539 2685.86 485.591 2699.08 477.532 2726.6 458.237 2733.71 450.462 2746.36 438.429 2749.82 431.041 2756.2 417.99 2763.01 406.717 2784.83 394.559ZM1228.98 439.994 1270.27 439.869 1289.5 446.752 1319.34 460.042 1352.53 485.671 1354.13 487.736 1364.07 498.475 1371.57 503.729 1387.35 518.94 1417.18 551.157 1434.8 579.617 1449.99 611.627 1461.4 636.064 1464.96 677.196 1464.9 714.189 1456.79 744.659 1445.81 768.376 1432.77 784.443 1415.12 793.834 1361.49 806.553 1297.34 814.581 1251.01 817.511 1213.79 812.293 1192.76 803.769 1151.68 789.261 1133.43 784.916 1121.84 775.97 1113.66 766.013 1106.02 749.15 1097.81 719.409 1093.47 680.032 1093.88 650.766 1098.09 610.147 1120.78 540.315 1134.81 507.859 1158.29 474.981 1178.2 458.607 1205.14 445.36ZM2506.63 155.802 2527.24 154.881 2554.01 157.126 2580.14 164.56 2608.31 178.786 2641.07 199.688 2675.04 228.278 2710.17 263.699 2733.95 295.325 2754.92 321.915 2764.66 347.287 2767.26 366.956C2767.26 373.551 2767.27 380.146 2767.28 386.741L2762.11 405.897 2756.2 417.99 2755 419.978 2749.82 431.041 2747.93 434.918 2733.71 450.462 2727.38 456.482 2688.15 483.182 2685.86 485.591 2665.58 497.954 2599.84 528.419 2559.88 538.807 2527.96 536.792 2493.75 521.976 2474.05 504.791 2464.47 482.854 2458.28 459.904C2457.38 446.18 2456.49 432.457 2455.58 418.733L2449.56 341.582 2446.18 266.032 2448.79 251.162 2451.23 244.301 2455.78 217.229 2457.42 209.615 2464.11 186.089 2473.92 174.468 2492.27 161.605ZM1514.89 196.676 1540.68 196.383 1566.71 201.242 1598.46 218.749 1610.02 232.118 1610.43 236.278 1618.18 255.718 1624.17 274.375 1624.91 275.663 1629.27 292.212 1638.76 331.359 1638.35 360.625 1634.23 384.035 1622.28 405.215 1610.47 429.829 1593 462.438 1575.18 506.246 1565.91 529.887 1557.08 544.045 1548.8 551.297 1525.7 554.05 1508.53 554.817 1457.22 542.485 1398.71 522.734 1371.57 503.729 1354.09 486.877 1352.53 485.671 1343.18 473.601 1333.12 460.287 1326.26 441.668 1320.59 410.954 1319.55 387.773 1322.11 367.874 1328.17 349.538 1356.72 314.713 1388.59 277.16 1419.05 246.55 1454 220.042 1489.33 202.119ZM2101.36 37.9943 2136.71 39.8556 2230.91 49.4104 2326.19 64.0778 2370.66 77.5749 2406.67 94.0308 2434.55 121.173 2452.51 157.36 2457.91 182.065 2457.35 207.898 2455.78 217.229 2450.3 242.622 2448.79 251.162 2441.3 272.272 2414.62 310.454 2374.2 349.25 2319.42 393.849 2279.91 414.54 2261.21 419.677 2237.14 419.892 2205.03 413.585 2185.83 407.561 2157.48 389.042 2126.16 362.054 2092.99 312.782 2051.97 222.57 2033.8 162.306 2031.72 115.946 2039.16 89.807 2049.32 66.9866 2060.65 50.9964 2074 41.7972ZM1846.27 46.8119 1902.93 44.28 1956.31 45.3356 1980.62 50.2712 1997.39 59.8445 2007.41 72.3 2012.62 92.7127 2018.36 144.07 2020.08 182.704 2013.34 224.296 2004.34 253.946 1984.49 290.963 1921.84 371.184 1888.69 399.332 1861.04 416.051 1837.24 422.277 1818.39 423.979 1796.77 421.504 1780.04 412.789 1693.88 352.122 1640.03 302.053 1624.91 275.663 1620.98 260.754 1612.07 234.485 1610.02 232.118 1608.84 220.005 1609.9 205.333 1613.08 180.245 1622.2 153.17 1638.22 126.647 1657.04 105.16 1688.86 85.6739 1729.53 71.8135 1781.33 56.5955Z" stroke="#FFFFFF" stroke-width="6.875" stroke-miterlimit="8" fill="none" fill-rule="evenodd"/></g></svg>