<svg width="2769" height="1721" xmlns="http://www.w3.org/2000/svg" xmlns:xlink="http://www.w3.org/1999/xlink" xml:space="preserve" overflow="hidden"><g transform="translate(-532 -310)"><path d="M3087.76 865.738 3039.62 865.738 3018.99 860.009 2993.78 834.803 2971.96 824.301 2968.56 822.201 2965.41 821.15 2962.83 819.909 2952.23 816.758 2916.99 805.015 2886.66 801.905 2863.12 798.14 2823.79 794.107 2819.57 793.557 2819.16 793.632 2818.42 793.557 2787.48 782.1 2769.14 764.914 2755.39 730.543 2743.92 680.131C2744.31 651.87 2744.69 623.609 2745.07 595.348L2757.68 502.544 2779.45 453.278 2800.08 409.741 2821.86 387.972 2844.78 373.078 2879.17 359.329 2942.2 342.143 2993.78 326.103 3027.02 315.791 3053.38 313.5 3088.91 313.5 3111.83 314.646 3145.07 326.103 3174.87 347.872 3209.25 393.701 3252.8 449.841 3271.14 476.192 3289.48 509.418 3297.5 547.227 3297.5 604.513 3291.77 685.86 3286.04 742 3280.31 766.06 3268.85 788.974 3241.34 817.618 3206.96 838.241 3167.99 854.281 3129.02 864.592ZM742.802 941.356 691.226 936.773 639.651 920.733 606.413 904.693 578.906 881.778 562.861 858.864 552.546 835.949 544.523 796.995 536.5 723.668C536.882 707.628 537.264 691.588 537.646 675.548L545.669 628.573 557.13 589.619 584.637 536.916 630.482 480.775 649.966 459.007 664.865 439.529 688.934 418.906 722.171 397.138 746.24 387.972 788.646 378.806 843.66 379.952 897.527 392.555 944.518 406.303 986.925 425.781 1019.02 456.715 1039.65 487.65 1053.4 517.438 1064.86 550.664 1069.45 590.765 1070.59 611.388 1080.91 649.196 1091.22 695.025 1095.81 724.814 1098.1 748.874 1095.81 770.643 1085.49 802.723 1074.03 826.783 1059.13 848.552 1039.65 866.884 1017.87 866.884 981.194 868.029 931.911 880.632 894.089 888.652 848.244 904.693 820.737 918.441 800.107 931.044ZM2912.4 1184.25 2889.48 1183.1 2861.97 1173.94 2835.61 1163.63 2812.12 1158.47 2795.5 1153.31 2738.19 1140.71 2707.25 1132.69 2707.25 1132.69 2695.79 1129.25 2662.55 1116.65 2645.36 1102.9 2637.34 1079.99 2627.02 1042.18 2630.46 1019.26 2640.77 994.059 2661.4 957.396 2684.33 915.004 2700.37 892.089 2726.73 862.301 2753.09 833.658 2773.72 811.889 2792.06 799.286 2806.96 795.849 2819.16 793.632 2823.79 794.107 2872.29 800.432 2886.66 801.905 2920.43 807.306 2952.23 816.758 2965.41 821.15 2971.96 824.301 2992.63 837.095 3015.55 860.009 3053.38 904.693 3083.18 947.084 3099.22 980.31 3107.24 1016.97 3109.54 1052.49 3102.66 1083.43 3091.2 1110.92 3069.42 1139.57 3049.94 1152.17 3016.7 1164.77 2943.35 1183.1ZM1008.7 1582.96 978.902 1577.23 953.687 1566.92 929.619 1546.3 910.135 1516.51 898.674 1478.7 896.381 1438.6 896.381 1406.52 906.696 1364.13 941.08 1283.93 964.002 1248.41 970.191 1242.22 984.632 1231.22 1012.14 1209.84 1017.87 1206.02 1017.87 1206.02 1049.96 1192.27 1079.76 1188.83 1109.56 1187.69 1085.49 1187.69 1047.67 1191.12 1017.87 1206.02 1017.87 1206.02 1017.87 1206.02 1015.58 1207.16 1012.14 1209.84 983.486 1228.93 970.191 1242.22 960.564 1249.55 906.696 1255.28 831.052 1250.7 792.084 1244.97 762.285 1231.22 738.217 1215.18 719.879 1191.12 713.002 1171.65 707.272 1143 708.418 1110.92 714.148 1083.43 723.317 1054.78 742.802 1020.41 777.185 966.561 797.815 940.21 811.569 926.461 836.783 911.567 855.121 902.401 895.235 888.652 945.665 878.341 986.925 870.321 1001.82 870.321 1021.31 869.175 1040.79 872.612 1062.57 886.361 1101.54 924.17 1123.31 961.979 1145.09 1003.22 1162.28 1027.28 1184.06 1059.36 1190.93 1085.72 1187.5 1117.8 1179.47 1153.31 1171.45 1173.94 1157.7 1189.98 1141.65 1187.69 1140.5 1187.69 1158.84 1191.12 1179.47 1201.43 1196.66 1209.45 1219.59 1220.91 1241.36 1234.66 1251.68 1247.26 1267.72 1272.47 1276.89 1307.99 1283.77 1337.78 1289.5 1368.71 1297.52 1407.66 1297.52 1421.41 1297.52 1443.18 1287.21 1463.8 1267.72 1491.3 1242.51 1514.22 1220.28 1513.39 1217.29 1513.07 1214.86 1513.19 1211.56 1513.07 1188.64 1513.07 1171.45 1514.22 1164.94 1515.35 1164.57 1515.36 1163.7 1515.56 1145.09 1518.8 1141.16 1520.76 1134.77 1522.24 1119.87 1529.11 1106.12 1540.57 1103.45 1546.68 1102.68 1547.44 1100.1 1554.32 1098.1 1558.9 1096.79 1563.16 1095.81 1565.77 1040.79 1580.67ZM2570.86 1837.31 2547.94 1830.44 2522.72 1814.4 2510.12 1792.63 2499.8 1762.84 2492.92 1745.65 2492.82 1742.71 2494.07 1738.78 2495.22 1706.7 2491.78 1699.14 2491.78 1696.39 2487.58 1689.89 2483.76 1681.49 2481.64 1680.72 2479.17 1676.91 2449.91 1669.33 2432.18 1663.16 2426.83 1662.78 2424.16 1662.01 2397.8 1660.87 2384.04 1628.79 2378.31 1599 2377.17 1572.65 2381.75 1547.44 2395.5 1519.95 2413.84 1497.03 2448.23 1480.99 2506.68 1462.66 2562.84 1447.76 2589.2 1443.18 2621.29 1439.74 2600.66 1439.74 2582.32 1439.74 2566.28 1426 2545.65 1401.94 2536.48 1373.29 2536.48 1332.05 2555.96 1254.14 2573.15 1215.18 2590.34 1185.39 2602.95 1171.65 2629.31 1161.33 2675.16 1143 2707.25 1132.69 2741.63 1143 2812.12 1158.47 2828.74 1163.63 2863.12 1177.37 2887.19 1211.75 2904.38 1246.12 2913.55 1295.38 2913.55 1359.54 2910.11 1416.83 2903.24 1452.35 2891.77 1475.26 2870 1500.47 2842.49 1516.51 2812.69 1524.53 2782.89 1525.67 2756.53 1519.95 2724.44 1502.76 2715.27 1484.43 2711.83 1474.12 2698.08 1456.93 2692.37 1453.72 2691.2 1452.35 2684.84 1449.48 2679.74 1446.62 2676.88 1445.9 2668.28 1442.04 2658.78 1441.38 2652.24 1439.74 2635.04 1439.74 2658.78 1441.38 2676.88 1445.9 2684.84 1449.48 2692.37 1453.72 2710.69 1475.26 2715.27 1484.43 2719.86 1498.18 2724.44 1568.07 2724.44 1655.14 2718.71 1705.55 2706.1 1749.09 2683.18 1784.61 2639.63 1823.56 2601.81 1835.02ZM1162.28 1877.41 1137.07 1872.83 1111.85 1862.52 1093.51 1844.18 1079.76 1828.14 1069.45 1807.52 1064.86 1778.88 1068.3 1714.72 1084.34 1603.58 1096.79 1563.16 1100.1 1554.32 1103.45 1546.68 1114.14 1535.99 1131.34 1525.67 1141.16 1520.76 1163.7 1515.56 1164.94 1515.35 1194.37 1514.22 1214.86 1513.19 1220.28 1513.39 1259.7 1517.65 1299.82 1524.53 1327.32 1531.4 1350.24 1542.86 1372.02 1556.61 1388.07 1574.94 1399.53 1596.71 1400.67 1628.79 1396.09 1667.74 1392.65 1696.39 1391.5 1718.16 1375.46 1719.3 1362.85 1719.3 1337.64 1727.32 1335.05 1729.14 1327.32 1731.9 1305.55 1750.24 1297.52 1774.3 1299.82 1792.63 1300.96 1814.4 1279.18 1836.16 1242.51 1861.37 1219.59 1871.68 1195.52 1876.26ZM2271.72 1955.32 2243.07 1950.74 2222.44 1938.13 2198.37 1907.2 2184.62 1888.87 2189.2 1843.04 2188.06 1826.43 2188.06 1810.96 2180.03 1790.34 2171.7 1780.96 2168.57 1776.59 2166.8 1775.96 2158.26 1767.42 2155.97 1741.07 2165.13 1711.28 2175.45 1683.78 2184.62 1668.89 2199.52 1662.01 2217.86 1657.43 2237.34 1657.43 2264.85 1665.45 2300.38 1673.47 2329.03 1675.76 2366.85 1671.18 2398.94 1664.31 2416.13 1662.01 2426.83 1662.78 2448.23 1668.89 2449.91 1669.33 2458.54 1672.33 2481.64 1680.72 2487.58 1689.89 2491.78 1699.14 2491.78 1713.57 2492.82 1742.71 2486.05 1763.98 2470 1799.5 2402.38 1884.28 2364.56 1917.51 2329.03 1942.72 2302.67 1950.74ZM1511.85 1995.42 1485.49 1995.42 1452.25 1988.55 1424.74 1973.65 1396.09 1953.03 1372.02 1924.38 1339.93 1872.83 1311.28 1828.14 1300.96 1799.5 1299.82 1777.73 1304.4 1760.55 1318.15 1741.07 1335.05 1729.14 1359.41 1720.45 1375.46 1719.3 1405.26 1719.3 1431.62 1719.3 1453.39 1712.43 1474.03 1702.11 1492.36 1690.66 1510.7 1681.49 1532.48 1676.91 1555.4 1676.91 1572.59 1683.78 1586.34 1692.95 1601.24 1715.86 1616.14 1751.38 1642.5 1805.23 1636.77 1816.69 1629.9 1823.56 1623.19 1840.8 1621.87 1843.04 1616.14 1868.24C1616.53 1883.14 1616.91 1898.03 1617.29 1912.93L1594.37 1945.01 1564.57 1973.65 1543.94 1986.25ZM2006.97 2025.21 1977.17 2021.77 1955.4 2010.31 1938.2 1985.11 1919.87 1954.17 1904.97 1932.4 1898.09 1907.2 1900.38 1869.39 1909.55 1839.6 1915.28 1822.42 1925.6 1799.5 1940.5 1773.15 1956.54 1746.8 1972.59 1731.9 1986.34 1727.32 2004.68 1723.88 2021.87 1723.88 2044.79 1730.76 2070.01 1743.36 2097.51 1758.25 2123.87 1766.27 2149.09 1769.71 2166.8 1775.96 2170.87 1780.02 2171.7 1780.96 2180.03 1792.63 2186.91 1809.81 2188.06 1826.43 2188.06 1844.18 2184.62 1888.87 2158.26 1928.97 2128.46 1971.36 2104.39 1994.27 2076.88 2010.31 2044.79 2019.48ZM1758.26 2027.5 1729.61 2027.5 1711.27 2019.48 1667.72 1989.69 1639.07 1947.3 1626.46 1920.95 1620.73 1899.18 1618.44 1865.95 1621.87 1844.18 1623.19 1840.8 1633.34 1823.56 1636.77 1816.69 1645.94 1807.52 1681.47 1781.17 1712.42 1758.26 1731.9 1745.65 1744.51 1741.07 1767.43 1739.92 1785.77 1742.22 1815.57 1757.11 1840.78 1774.3 1861.41 1789.19 1887.77 1800.65 1903.82 1818.98 1907.26 1831.58 1902.67 1852.2 1896.94 1884.28 1898.09 1915.22 1872.87 1958.76 1845.37 1989.69 1815.57 2011.46 1788.06 2021.77Z" stroke="#FFFFFF" stroke-width="6.875" stroke-miterlimit="8" fill="none" fill-rule="evenodd"/></g></svg>